<svg width="133" height="40" viewBox="0 0 133 40" fill="none" xmlns="http://www.w3.org/2000/svg">
<path d="M12.3886 36.8489L3.15111 27.6114C-1.05037 23.4099 -1.05037 16.5942 3.15111 12.3886L12.3886 3.15111C16.5901 -1.05037 23.4058 -1.05037 27.6114 3.15111L36.8489 12.3886C41.0504 16.5901 41.0504 23.4058 36.8489 27.6114L27.6114 36.8489C23.4058 41.0504 16.5942 41.0504 12.3886 36.8489Z" fill="#20409B"/>
<path d="M20.2342 12.5156C20.5983 12.4829 20.946 12.4174 21.2651 12.3152C21.8338 12.1597 22.3329 11.8815 22.742 11.5133C22.7992 11.4642 22.8565 11.407 22.9138 11.3538L22.9342 11.3333C23.687 10.5806 24.1002 9.5169 24.0388 8.28959C23.9938 7.36502 23.6584 6.54273 23.1224 5.90453C22.9752 5.72453 22.8115 5.56088 22.6315 5.4136C21.9892 4.87359 21.1669 4.54221 20.2423 4.49312C19.0723 4.43585 18.0618 4.80404 17.3173 5.48724C17.2764 5.52406 17.2395 5.55679 17.2027 5.59361C16.7323 6.04771 16.3845 6.62864 16.2045 7.30775C16.2004 7.3282 16.1922 7.34866 16.1881 7.36911C16.1063 7.65958 16.049 7.9705 16.0204 8.29369C16.0204 8.3346 16.0122 8.3755 16.0081 8.41232C15.5704 13.0761 13.1771 15.5062 8.55428 15.9848C8.49292 15.993 8.43156 15.9971 8.37019 16.0053C6.02194 16.218 4.4878 17.8094 4.50007 20.0227C4.50826 21.1681 4.9419 22.15 5.68647 22.8577C6.39422 23.6023 7.37607 24.0319 8.51746 24.04C10.7307 24.0564 12.3221 22.5223 12.5349 20.1699C12.5389 20.1045 12.5471 20.0472 12.5553 19.9858C13.0299 15.3589 15.464 12.9656 20.1278 12.5279C20.1564 12.5238 20.1974 12.5197 20.2342 12.5156Z" fill="white"/>
<path d="M31.701 23.9829C32.0651 23.9502 32.4128 23.8847 32.7319 23.7824C33.3006 23.627 33.7997 23.3488 34.2088 22.9806C34.266 22.9315 34.3233 22.8742 34.3806 22.821L34.401 22.8006C35.1538 22.0478 35.567 20.9842 35.5056 19.7569C35.4606 18.8323 35.1252 18.01 34.5892 17.3718C34.442 17.1918 34.2783 17.0282 34.0983 16.8809C33.456 16.3409 32.6337 16.0095 31.7091 15.9604C30.5391 15.9031 29.5286 16.2713 28.7841 16.9545C28.7432 16.9913 28.7063 17.0241 28.6695 17.0609C28.199 17.515 27.8513 18.0959 27.6713 18.775C27.6672 18.7955 27.659 18.8159 27.6549 18.8364C27.5731 19.1269 27.5158 19.4378 27.4872 19.761C27.4872 19.8019 27.479 19.8428 27.4749 19.8796C27.0372 24.5434 24.6439 26.9734 20.0211 27.4521C19.9597 27.4603 19.8984 27.4644 19.837 27.4725C17.4887 27.6853 15.9546 29.2767 15.9669 31.4899C15.9751 32.6354 16.4087 33.6173 17.1533 34.325C17.861 35.0696 18.8429 35.4991 19.9843 35.5073C22.1975 35.5237 23.7889 33.9895 24.0017 31.6372C24.0057 31.5718 24.0139 31.5145 24.0221 31.4531C24.4967 26.8262 26.9308 24.4329 31.5946 23.9952C31.6232 23.9911 31.6601 23.987 31.701 23.9829Z" fill="white"/>
<path d="M20.013 24.0358C22.2498 24.0358 24.0631 22.2225 24.0631 19.9857C24.0631 17.7488 22.2498 15.9355 20.013 15.9355C17.7762 15.9355 15.9629 17.7488 15.9629 19.9857C15.9629 22.2225 17.7762 24.0358 20.013 24.0358Z" fill="white"/>
<path d="M76.3364 29H72.3813V20.7734H64.6689V29H60.7139V9.80469H64.6689V17.583H72.3813V9.80469H76.3364V29ZM95.5713 19.8374C95.5713 21.7271 95.2373 23.3838 94.5693 24.8076C93.9014 26.2314 92.9434 27.3301 91.6953 28.1035C90.4561 28.877 89.0322 29.2637 87.4238 29.2637C85.833 29.2637 84.4136 28.8813 83.1655 28.1167C81.9175 27.3521 80.9507 26.2622 80.2651 24.8472C79.5796 23.4233 79.2324 21.7886 79.2236 19.9429V18.9937C79.2236 17.104 79.562 15.4429 80.2388 14.0103C80.9243 12.5688 81.8867 11.4658 83.126 10.7012C84.374 9.92773 85.7979 9.54102 87.3975 9.54102C88.9971 9.54102 90.4165 9.92773 91.6558 10.7012C92.9038 11.4658 93.8662 12.5688 94.543 14.0103C95.2285 15.4429 95.5713 17.0996 95.5713 18.9805V19.8374ZM91.5635 18.9673C91.5635 16.9546 91.2031 15.4253 90.4824 14.3794C89.7617 13.3335 88.7334 12.8105 87.3975 12.8105C86.0703 12.8105 85.0464 13.3291 84.3257 14.3662C83.605 15.3945 83.2402 16.9062 83.2314 18.9014V19.8374C83.2314 21.7974 83.5918 23.3179 84.3125 24.3989C85.0332 25.48 86.0703 26.0205 87.4238 26.0205C88.751 26.0205 89.7705 25.502 90.4824 24.4648C91.1943 23.4189 91.5547 21.8984 91.5635 19.9033V18.9673ZM98.4453 29V9.80469H104.352C106.039 9.80469 107.546 10.187 108.874 10.9517C110.209 11.7075 111.251 12.7886 111.998 14.1948C112.745 15.5923 113.119 17.1831 113.119 18.9673V19.8506C113.119 21.6348 112.75 23.2212 112.011 24.6099C111.282 25.9985 110.249 27.0752 108.913 27.8398C107.577 28.6045 106.07 28.9912 104.391 29H98.4453ZM102.4 13.0083V25.8228H104.312C105.859 25.8228 107.041 25.3174 107.858 24.3066C108.676 23.2959 109.093 21.8501 109.111 19.9692V18.9541C109.111 17.0029 108.707 15.5264 107.898 14.5244C107.089 13.5137 105.907 13.0083 104.352 13.0083H102.4ZM131.773 19.8374C131.773 21.7271 131.439 23.3838 130.771 24.8076C130.104 26.2314 129.146 27.3301 127.897 28.1035C126.658 28.877 125.234 29.2637 123.626 29.2637C122.035 29.2637 120.616 28.8813 119.368 28.1167C118.12 27.3521 117.153 26.2622 116.467 24.8472C115.782 23.4233 115.435 21.7886 115.426 19.9429V18.9937C115.426 17.104 115.764 15.4429 116.441 14.0103C117.126 12.5688 118.089 11.4658 119.328 10.7012C120.576 9.92773 122 9.54102 123.6 9.54102C125.199 9.54102 126.619 9.92773 127.858 10.7012C129.106 11.4658 130.068 12.5688 130.745 14.0103C131.431 15.4429 131.773 17.0996 131.773 18.9805V19.8374ZM127.766 18.9673C127.766 16.9546 127.405 15.4253 126.685 14.3794C125.964 13.3335 124.936 12.8105 123.6 12.8105C122.272 12.8105 121.249 13.3291 120.528 14.3662C119.807 15.3945 119.442 16.9062 119.434 18.9014V19.8374C119.434 21.7974 119.794 23.3179 120.515 24.3989C121.235 25.48 122.272 26.0205 123.626 26.0205C124.953 26.0205 125.973 25.502 126.685 24.4648C127.396 23.4189 127.757 21.8984 127.766 19.9033V18.9673Z" fill="#20409B"/>
</svg>
