<svg xmlns="http://www.w3.org/2000/svg" width="150" height="47" viewBox="0 0 150 47" fill="none">
  <path d="M148.063 28.1799C147.216 27.8773 146.611 27.2116 145.885 26.7274C144.886 26.0315 144.916 26.0315 143.887 26.7274C143.191 27.2116 142.526 27.7866 141.739 28.2102V28.2405C141.739 27.4234 142.163 26.6972 142.405 25.9709C142.828 24.6395 142.859 24.6395 141.739 23.8225C141.073 23.3383 140.407 22.8844 139.772 22.2792C140.801 22.2792 141.799 22.2489 142.828 22.2792C143.433 22.3095 143.736 22.1279 143.918 21.4924C144.16 20.5241 144.523 19.6163 144.977 18.6782C145.31 19.6768 145.673 20.6754 145.945 21.674C146.066 22.1279 146.308 22.2792 146.762 22.2489C147.821 22.2187 148.88 22.2489 150 22.37C149.274 22.8844 148.547 23.4291 147.821 23.9435C146.944 24.579 146.944 24.579 147.277 25.6381C147.519 26.5156 147.882 27.3327 148.063 28.1799Z" fill="white"/>
  <path d="M8.2913 28.2101C7.56506 27.968 7.02037 27.4233 6.41517 26.9997C5.08372 26.0616 5.08372 26.0616 3.78253 26.9694C3.17732 27.3931 2.63264 27.9075 1.96692 28.2101V28.2404C1.93666 27.5444 2.33004 26.9694 2.48134 26.334C2.57212 25.9708 2.69316 25.6077 2.84446 25.2748C3.1168 24.7604 2.93524 24.4578 2.48134 24.1552C1.63405 23.6105 0.817026 22.9751 0 22.2488C1.08937 22.2488 2.14848 22.2186 3.23785 22.2488C3.69175 22.2791 3.90357 22.0975 4.02461 21.6739C4.32721 20.645 4.69034 19.6162 5.08372 18.436C5.44684 19.4649 5.71918 20.3424 6.05205 21.2502C6.47569 22.4001 6.11257 22.1883 7.44402 22.2186C8.35182 22.2186 9.25963 22.2186 10.228 22.3699C9.50171 22.8843 8.77547 23.3987 8.04922 23.9131C7.11116 24.5789 7.14142 24.5486 7.47428 25.638C7.71636 26.5155 8.10974 27.3325 8.2913 28.2101Z" fill="white"/>
  <path d="M30.3812 28.0284C30.472 27.3022 30.8351 26.697 31.168 26.0615C31.2285 26.0615 31.2285 26.0615 31.1982 26.0313L31.168 26.0615C30.5628 26.3036 29.9273 26.5457 29.2616 26.5457C27.2947 26.5457 25.933 25.5471 25.0857 23.8525C24.0266 21.7646 24.5713 19.1622 26.3263 17.7702C27.0829 17.165 27.9907 16.8927 28.959 16.8927C29.0498 16.8927 29.1103 16.8927 29.2011 16.8624C29.1708 16.7111 29.0498 16.7111 28.959 16.6506C26.7197 15.4402 26.2356 13.0193 26.9618 11.0524C26.9921 10.9617 27.0223 10.8406 27.0526 10.7498C27.5065 9.81176 28.142 9.025 29.0195 8.45005C30.9562 7.17912 33.6493 7.33042 35.1623 9.29734C35.1926 9.3276 35.2229 9.38812 35.3136 9.35786C35.011 8.29875 35.011 7.2699 35.4952 6.27132C36.3425 4.48596 38.4304 3.39659 40.4276 3.6992C42.213 3.97154 43.5444 4.84908 44.2707 6.54366C44.6943 7.51199 44.5733 8.54083 44.3312 9.53942C44.3009 9.59994 44.3009 9.6302 44.3312 9.69072C44.3614 9.66046 44.3614 9.6302 44.3917 9.59994C44.4825 9.4789 44.6035 9.35786 44.6943 9.20656C45.8442 7.69355 47.5993 7.1186 49.4149 7.72381C50.9582 8.23823 51.987 9.29734 52.6225 10.7801C52.9856 11.8695 53.0461 12.9588 52.6528 14.0482C52.2291 15.1981 51.3818 15.9546 50.2925 16.469C50.1412 16.5295 49.9596 16.6203 49.8083 16.6808C49.8083 16.6808 49.8083 16.7111 49.778 16.7414C50.3227 16.6808 50.8371 16.6808 51.3213 16.7716C53.1067 17.1347 54.1658 18.2544 54.6197 19.9792C55.1341 21.9764 54.3776 24.1249 52.7738 25.305C51.5331 26.2128 50.1714 26.3944 48.7189 25.8497C48.4768 25.7589 48.2348 25.6379 47.9624 25.5471C47.9322 25.5168 47.9322 25.5168 47.9019 25.4866V25.5168C47.9322 25.5168 47.9624 25.5168 47.9927 25.5168C47.9624 25.6076 48.0229 25.6379 48.0532 25.6984C48.6584 26.3944 49.0518 27.1811 49.2333 28.0587C49.2636 28.4823 49.2636 28.8757 49.2031 29.2994C49.1728 29.4809 49.1426 29.6625 49.082 29.844C48.9307 30.2677 48.7189 30.6913 48.5071 31.0847C48.3861 31.236 48.2953 31.3873 48.1742 31.5386C48.1137 31.5991 48.0532 31.6899 47.9927 31.7504C46.631 33.1424 44.9969 33.6871 43.0905 33.324C41.9709 33.1121 41.0631 32.4464 40.3974 31.5386C40.3066 31.3873 40.2158 31.236 40.1553 31.0545C40.004 30.7216 39.8829 30.3887 39.7922 29.9651C39.6409 30.3887 39.5501 30.7519 39.429 31.0847C39.3383 31.236 39.2777 31.3873 39.1869 31.5386C37.9463 33.2634 36.2517 33.8384 34.2243 33.3845C33.0441 33.1424 32.0758 32.4464 31.3193 31.5386C31.2285 31.3873 31.1075 31.236 31.0167 31.115C30.8049 30.7216 30.6233 30.2979 30.472 29.8743C30.4417 29.6927 30.3812 29.5112 30.351 29.3296C30.351 28.8757 30.351 28.4521 30.3812 28.0284ZM39.6711 27.635C44.3009 27.635 48.0532 23.913 48.0532 19.2832C48.0532 14.6231 44.3614 10.9011 39.7922 10.8406C35.1926 10.7801 31.3193 14.5021 31.289 19.1924C31.289 23.913 34.9808 27.635 39.6711 27.635Z" fill="#E1011B"/>
  <path fill-rule="evenodd" clip-rule="evenodd" d="M18.9732 9.84214L16.5221 11.0223C16.5347 11.0349 16.542 11.0422 16.5441 11.0508C16.5471 11.063 16.5398 11.0777 16.5221 11.1131H18.8824C18.9482 11.1131 19.0299 11.0813 19.1045 11.0522L19.1045 11.0522C19.1328 11.0412 19.16 11.0306 19.185 11.0223C20.1079 10.5835 21.0233 10.1448 21.9386 9.706C22.854 9.26721 23.7694 8.82843 24.6924 8.38965C27.1434 7.20951 29.6021 6.03692 32.0607 4.86434C34.5194 3.69176 36.978 2.51917 39.4291 1.33902C39.6409 1.21797 39.8225 1.21797 40.0343 1.33902L44.0287 3.33619C46.5855 4.60704 49.1499 5.88545 51.7142 7.16386L51.7148 7.16415C54.2794 8.44263 56.8439 9.72111 59.4009 10.992C59.4513 11.0047 59.4965 11.0278 59.5409 11.0505C59.6029 11.0822 59.6631 11.1131 59.7337 11.1131H62.0032C61.8822 10.992 61.7914 10.9315 61.6704 10.871L57.3129 8.69225L40.0646 0.0680855C39.8527 -0.0226952 39.7014 -0.0226952 39.4896 0.0680855L35.8584 1.79292C30.7043 4.25911 25.5757 6.69992 20.4026 9.16183L20.4012 9.16253L18.9732 9.84214ZM44.422 9.56982C44.4186 9.56982 44.4155 9.56943 44.4128 9.56871C44.4155 9.56939 44.4186 9.56977 44.422 9.56977C44.4808 9.47178 44.5523 9.38648 44.62 9.30565C44.6569 9.26168 44.6926 9.21904 44.7246 9.17639C45.8442 7.66338 47.6296 7.08843 49.4452 7.69364C51.0187 8.1778 52.0476 9.26717 52.6528 10.7499H57.6154C57.5337 10.6478 57.452 10.6146 57.3796 10.5852C57.3448 10.571 57.3121 10.5578 57.2826 10.5381L57.28 10.5369C51.5616 7.84412 45.8433 5.15136 40.1553 2.45861C39.9737 2.36783 39.8224 2.36783 39.6106 2.45861C33.6496 5.15167 27.7188 7.84473 21.788 10.5378L21.7873 10.5381C21.7766 10.5417 21.7651 10.5452 21.7529 10.549L21.7528 10.549C21.6617 10.5772 21.5345 10.6165 21.4545 10.7499H27.0829C27.5368 9.81185 28.1722 9.02509 29.0498 8.45014C31.0167 7.17921 33.6796 7.33051 35.1926 9.29743C35.1974 9.30222 35.2022 9.30777 35.2072 9.31359C35.234 9.34457 35.2675 9.38342 35.3439 9.35795C35.0413 8.3291 35.0413 7.26999 35.5255 6.27141C36.3728 4.48605 38.4607 3.39668 40.4579 3.69928C42.2432 3.97163 43.5747 4.84917 44.3009 6.54375C44.7212 7.53433 44.6054 8.52491 44.3673 9.51549C44.3654 9.51343 44.3635 9.51136 44.3615 9.50929C44.3312 9.56982 44.3312 9.60007 44.3615 9.6606C44.3766 9.64546 44.3841 9.63033 44.3917 9.6152C44.3993 9.60007 44.4068 9.58494 44.422 9.56982ZM31.3194 31.4782C32.1062 32.386 33.0442 33.082 34.2244 33.3241C36.2518 33.778 37.9464 33.203 39.1871 31.4782H40.4277C41.1237 32.386 42.0013 33.0517 43.1209 33.2635C45.0273 33.6267 46.6613 33.082 48.0231 31.69C48.0533 31.6598 48.0836 31.6219 48.1138 31.5841L48.1138 31.5841C48.1441 31.5463 48.1744 31.5084 48.2046 31.4782H61.9428C62.3059 31.4782 62.3967 31.569 62.3664 31.9321C62.3362 32.5373 62.3362 33.1728 62.3664 33.778C62.3664 33.9898 62.3059 34.0806 62.0941 34.0503H61.9125H17.3392C17.1171 34.0503 17.0037 34.0503 16.9458 33.9936C16.8853 33.9344 16.8853 33.8134 16.8853 33.5661V31.811C16.8853 31.569 16.9458 31.5084 17.1879 31.5084H22.2413C25.2976 31.5084 28.3236 31.5084 31.3194 31.4782ZM30.5023 29.8139C30.6536 30.2375 30.8352 30.6612 31.047 31.0545H17.3088C17.0062 31.0545 16.9457 30.9638 16.9457 30.6914L16.9487 30.6068C16.9615 30.2344 16.968 30.0438 17.0666 29.9463C17.17 29.8441 17.3744 29.8441 17.793 29.8441H30.0787C30.1997 29.8139 30.351 29.8139 30.5023 29.8139ZM49.1426 29.8139C48.961 30.2375 48.7795 30.6612 48.5677 31.0545H61.6098C61.9982 31.0545 62.1875 31.0545 62.2832 30.9599C62.3743 30.8699 62.3808 30.6944 62.3934 30.352L62.3966 30.2678C62.4268 29.9047 62.3361 29.8139 61.9729 29.8139H49.1426ZM30.3813 28.0285C30.3511 28.4522 30.3511 28.8455 30.3813 29.2692H17.3089C17.0063 29.2692 16.8853 29.2087 16.9155 28.8758C16.9262 28.7793 16.9142 28.6715 16.9022 28.5644C16.8804 28.369 16.8588 28.176 16.976 28.0588C17.1064 27.9284 17.3304 27.9541 17.5472 27.9789C17.6323 27.9886 17.7163 27.9983 17.7931 27.9983C21.9992 28.0285 26.1752 28.0285 30.3813 28.0285ZM49.294 28.0285C49.3242 28.4522 49.3242 28.8456 49.2637 29.2692C53.3186 29.2995 57.4037 29.2995 61.5191 29.2692C61.6052 29.2692 61.6987 29.279 61.7925 29.2889C62.0285 29.3136 62.2668 29.3386 62.3967 29.2087C62.5135 29.0918 62.4925 28.8872 62.4707 28.6755C62.4587 28.5583 62.4464 28.439 62.4572 28.3311C62.4572 28.0891 62.3967 28.0285 62.1546 28.0285H49.294ZM39.6325 31.0585H39.6324C39.5663 31.0566 39.4987 31.0546 39.4292 31.0546C39.4594 30.9638 39.4897 30.8749 39.5199 30.7861L39.52 30.786C39.6107 30.5193 39.7015 30.2527 39.7923 29.935C39.8427 30.0761 39.8864 30.2071 39.9278 30.3314L39.9279 30.3317C40.0108 30.5805 40.0848 30.8024 40.1857 31.0243C40.0054 31.0694 39.8252 31.0641 39.6325 31.0585ZM47.9776 25.4716C47.9624 25.464 47.9473 25.4564 47.9322 25.4564V25.4867H48.0229C48.0078 25.4867 47.9927 25.4791 47.9776 25.4716ZM31.168 26.0616L31.1983 26.0313C31.2285 26.0616 31.2285 26.0919 31.168 26.0616ZM43.431 25.4296L43.431 25.4299C43.4386 25.5188 43.4461 25.6077 43.4537 25.6985C43.4823 25.8415 43.3758 25.8764 43.2873 25.9054L43.2721 25.9104C42.2433 26.4853 41.1237 26.7577 39.9738 26.8484C39.762 26.8484 39.7014 26.7879 39.7317 26.5761V26.3945C39.7014 26.0617 39.7317 25.7893 40.1553 25.6985C40.4882 25.638 40.6092 25.3657 40.6092 25.0026V13.6852C40.6092 12.8077 40.4882 12.6564 39.6712 12.384C39.5501 12.3538 39.5501 12.2933 39.5501 12.2025C39.4594 11.4157 39.4594 11.3855 40.2764 11.4762C42.3643 11.7486 44.1497 12.5353 45.5114 14.1997C46.0561 14.8654 46.4495 15.6521 46.51 16.5297C46.5705 17.4375 46.1771 18.073 45.3904 18.4966C44.997 18.7387 44.5431 18.8597 44.0287 18.9505C44.3918 19.1321 44.6944 19.3136 44.9365 19.6162C45.2996 20.1004 45.4509 20.6753 45.6022 21.2503C45.6627 21.5226 45.7535 21.7949 45.8443 22.0673L45.8443 22.0673L45.8443 22.0673C45.8499 22.0786 45.8555 22.0919 45.8616 22.1062C45.8879 22.1687 45.9217 22.2489 45.9956 22.2489C46.0863 22.2489 46.1469 22.1581 46.1771 22.0976C46.2376 21.9312 46.2981 21.7724 46.3586 21.6136L46.3587 21.6134L46.3587 21.6133C46.4192 21.4544 46.4797 21.2956 46.5403 21.1292C46.5549 21.0999 46.566 21.067 46.577 21.0345C46.6114 20.9326 46.6448 20.834 46.7823 20.8569C46.9034 20.8872 46.9034 21.0687 46.8731 21.1595C46.7218 22.2489 46.3284 23.2475 45.4811 23.9737C45.0272 24.3974 44.5733 24.2763 44.3615 23.7014C44.1497 23.1869 44.1194 22.612 44.1194 22.0673C44.1194 21.3713 44.0589 20.7056 43.7866 20.0701C43.484 19.4044 43.2116 19.2531 42.4854 19.3439C42.2834 19.3691 42.2921 19.4787 42.3005 19.5846C42.3022 19.6056 42.3038 19.6265 42.3038 19.6465V22.0673V24.5487C42.3038 24.5715 42.3033 24.5943 42.3029 24.617C42.2996 24.7749 42.2964 24.927 42.4551 25.0328C42.6128 25.1379 42.7704 25.0377 42.9083 24.95L42.9084 24.95C42.9292 24.9367 42.9496 24.9237 42.9695 24.9118C43.0301 24.7605 43.1814 24.6697 43.3629 24.5789C43.3856 24.8965 43.4083 25.1631 43.431 25.4296ZM42.0315 16.0455V17.7098C42.0315 18.6479 42.0617 18.6782 42.9998 18.6176C43.5142 18.5874 43.8774 18.3756 44.0589 17.8309C44.301 17.1349 44.3918 16.4389 44.3313 15.7127C44.2102 14.593 43.484 13.8063 42.3643 13.655C42.1223 13.6247 42.0315 13.6852 42.0315 13.9273V16.0455ZM33.2884 22.3389C33.1687 22.1483 33.0482 21.9565 32.9231 21.7647C32.56 22.1883 32.56 22.1883 32.7113 22.4909C33.9217 24.9117 35.8583 26.3945 38.5515 26.8484C39.308 26.9694 39.308 26.9392 39.2777 26.1827C39.2777 25.9708 39.2172 25.9103 39.0054 25.9406C38.7028 25.9708 38.4002 25.9406 38.1278 25.8195C37.8252 25.6985 37.6134 25.5472 37.6134 25.1841V13.5036C37.6134 13.201 37.7345 13.0195 37.9765 12.8984C38.1278 12.8076 38.3094 12.7471 38.491 12.6866C39.0659 12.5353 39.0659 12.5353 39.0659 11.9301V11.8998C39.1264 11.5972 39.0054 11.5065 38.7028 11.567C35.7675 12.0209 33.7098 13.5944 32.5297 16.3178C32.4099 16.5874 32.3345 16.6865 32.355 16.7582C32.376 16.8313 32.4967 16.876 32.7718 17.0441C32.9533 17.1651 33.0441 17.1349 33.1349 16.923C33.5888 15.985 34.1637 15.1377 34.8295 14.3509C34.9808 14.1694 35.1623 13.9878 35.4347 14.0786C35.707 14.1694 35.707 14.4114 35.707 14.6535C35.7373 17.861 35.7373 21.0382 35.7373 24.2456V24.246C35.7373 24.3973 35.7373 24.6091 35.5557 24.6999C35.3742 24.7907 35.2229 24.6999 35.0716 24.6091C34.7839 24.4261 34.5867 24.1753 34.3822 23.9152C34.35 23.8743 34.3177 23.8332 34.2848 23.7921C33.9121 23.3318 33.603 22.8397 33.2884 22.3389Z" fill="white"/>
  <path d="M91.2044 9.87245L91.1136 10.3566L89.298 9.99349L89.3888 9.50933L90.0545 9.63037L90.3873 7.96606C90.3571 7.99632 90.2966 8.02658 90.236 8.05684C90.1755 8.0871 90.0847 8.11736 90.0242 8.14762C89.9334 8.17788 89.8729 8.17788 89.7821 8.17788C89.6914 8.17788 89.6308 8.17788 89.5703 8.17788L89.6611 7.69372C89.7216 7.69372 89.8124 7.69372 89.9032 7.69372C89.994 7.66346 90.0847 7.6332 90.1755 7.60294C90.2663 7.57267 90.3571 7.54241 90.4176 7.48189C90.4781 7.45163 90.5386 7.42137 90.5386 7.39111L91.0833 7.51215L90.6294 9.75141L91.2044 9.87245Z" fill="white"/>
  <path d="M92.5358 8.48044C92.7174 8.35939 92.8989 8.29887 93.141 8.26861C93.3528 8.23835 93.5646 8.29887 93.7765 8.38965C94.0185 8.5107 94.1699 8.662 94.2909 8.84356C94.4119 9.02512 94.4725 9.2672 94.4422 9.50928C94.4422 9.75137 94.3514 10.054 94.2304 10.3263C94.0488 10.7197 93.837 11.0526 93.5949 11.2644C93.3528 11.4762 93.141 11.6275 92.8989 11.688C92.6568 11.7485 92.4148 11.7183 92.1727 11.5972C91.9911 11.5065 91.8096 11.3552 91.6885 11.2039C91.5675 11.0223 91.5069 10.8407 91.4767 10.6289L91.9003 10.4776C91.9003 10.6289 91.9609 10.7802 92.0516 10.9013C92.1424 11.0223 92.2332 11.1433 92.3845 11.2039C92.5358 11.2644 92.6871 11.2946 92.8384 11.2644C92.9897 11.2341 93.141 11.1433 93.262 11.0223C93.3831 10.9013 93.5344 10.7197 93.6252 10.4776C93.5344 10.5381 93.4436 10.5987 93.3528 10.6289C93.262 10.6592 93.141 10.6592 93.02 10.6592C92.8989 10.6592 92.8081 10.6289 92.6871 10.5684C92.4753 10.4776 92.324 10.3263 92.2029 10.175C92.0819 9.99345 92.0214 9.81189 91.9911 9.60006C91.9609 9.38824 92.0214 9.20668 92.1122 8.99486C92.2332 8.75278 92.3542 8.60148 92.5358 8.48044ZM93.2015 8.75278C93.0805 8.75278 92.9594 8.8133 92.8384 8.87382C92.7174 8.93434 92.6568 9.05538 92.5963 9.17642C92.5358 9.29746 92.5055 9.4185 92.5358 9.5698C92.5661 9.72111 92.5963 9.81189 92.6568 9.93293C92.7174 10.054 92.8081 10.1145 92.9292 10.175C93.0502 10.2355 93.1713 10.2658 93.2923 10.2355C93.4133 10.2355 93.5344 10.175 93.6554 10.1145C93.7765 10.054 93.837 9.93293 93.8975 9.81189C93.958 9.69085 93.9883 9.5698 93.958 9.4185C93.958 9.29746 93.8975 9.17642 93.837 9.05538C93.7765 8.93434 93.6857 8.87382 93.5646 8.8133C93.4436 8.75278 93.3226 8.72252 93.2015 8.75278Z" fill="white"/>
  <path d="M94.0186 11.7485C94.1093 11.6577 94.2001 11.5669 94.2909 11.4761C94.3817 11.4156 94.4725 11.3551 94.5935 11.2946C94.7145 11.2643 94.8356 11.2341 94.9566 11.2341C95.1079 11.2341 95.2592 11.2643 95.4105 11.2946C95.5316 11.3248 95.6526 11.3551 95.7736 11.3854C95.8947 11.4156 95.9855 11.4459 96.0762 11.4459C96.167 11.4459 96.2578 11.4459 96.3183 11.4459C96.3788 11.4156 96.4394 11.3854 96.4999 11.3248C96.5604 11.2643 96.5907 11.2038 96.5907 11.1433C96.5907 11.0828 96.5907 10.992 96.5604 10.9012C96.5302 10.8104 96.4696 10.7499 96.3788 10.6591C96.3183 10.5986 96.2578 10.5683 96.167 10.5381C96.0762 10.5078 96.0157 10.4775 95.9552 10.4775C95.8947 10.4775 95.8039 10.4473 95.7434 10.4473C95.6829 10.4473 95.6223 10.4473 95.5618 10.4473V9.93286C95.6223 9.93286 95.6829 9.93286 95.7736 9.93286C95.8644 9.93286 95.9552 9.96312 96.0762 9.99338C96.1973 10.0236 96.2881 10.0539 96.4091 10.1144C96.5302 10.1749 96.6512 10.2355 96.742 10.3565C96.8933 10.5078 97.0143 10.6288 97.0748 10.7801C97.1354 10.9314 97.1656 11.0828 97.1354 11.2341C97.1051 11.3854 97.0446 11.5064 96.9538 11.6274C96.863 11.7182 96.7722 11.7787 96.6815 11.809C96.5907 11.8393 96.4999 11.8695 96.3788 11.8695C96.2881 11.8695 96.167 11.8695 96.0762 11.8393C95.9855 11.809 95.8947 11.809 95.8039 11.7787C95.6829 11.7485 95.5618 11.7182 95.4408 11.688C95.35 11.6577 95.229 11.6577 95.1684 11.6577C95.0777 11.6577 95.0171 11.6577 94.9566 11.6577C94.8961 11.6577 94.8053 11.688 94.7448 11.7485L95.9552 12.8076L95.6526 13.1707L94.0186 11.7485Z" fill="white"/>
  <path d="M97.8615 14.2298C97.9221 14.3509 97.9523 14.4719 97.9221 14.6232C97.9221 14.7443 97.8616 14.8653 97.801 14.9863C97.7405 15.1074 97.6195 15.1982 97.4984 15.2889C97.3169 15.41 97.1656 15.4705 96.984 15.4705C96.8024 15.4705 96.6209 15.41 96.4696 15.3192C96.288 15.2284 96.1367 15.0771 96.0157 14.8653C95.8644 14.6535 95.8039 14.4719 95.7736 14.2601C95.7433 14.0483 95.7433 13.8667 95.8341 13.6852L96.3183 13.7457C96.2578 13.8667 96.2578 14.018 96.2578 14.1391C96.2578 14.2904 96.3183 14.4417 96.4393 14.593C96.5604 14.7745 96.6814 14.8653 96.8327 14.9258C96.984 14.9561 97.1353 14.9258 97.2866 14.835C97.4379 14.714 97.5287 14.593 97.5589 14.4114C97.5892 14.2298 97.5287 14.0483 97.3774 13.8365L97.3169 13.7154L97.6497 13.4733L97.7405 13.5944C97.8615 13.7759 97.9826 13.897 98.1339 13.9272C98.2852 13.9575 98.4365 13.9272 98.5575 13.8365C98.6483 13.7759 98.7088 13.7154 98.7391 13.6246C98.7693 13.5339 98.7694 13.4733 98.7694 13.3826C98.7391 13.2918 98.7088 13.201 98.6483 13.1102C98.5575 12.9589 98.4365 12.8681 98.3154 12.8076C98.1944 12.7471 98.0431 12.7168 97.8918 12.7168L98.0128 12.2327C98.1339 12.2327 98.2549 12.2629 98.376 12.2932C98.497 12.3537 98.618 12.4142 98.7391 12.505C98.8601 12.5958 98.9509 12.7168 99.0417 12.8681C99.1627 13.0497 99.2233 13.2313 99.2535 13.3826C99.2838 13.5339 99.2838 13.7154 99.2233 13.8667C99.1627 14.018 99.072 14.1391 98.9207 14.2298C98.7996 14.2904 98.7088 14.3509 98.5878 14.3811C98.4667 14.4114 98.3457 14.4114 98.2247 14.3509C98.0431 14.3811 97.9523 14.3206 97.8615 14.2298Z" fill="white"/>
  <path d="M120.95 9.99352C120.98 9.87248 121.011 9.75144 121.071 9.6304C121.132 9.50936 121.192 9.41858 121.253 9.32779C121.344 9.23701 121.434 9.17649 121.555 9.08571C121.676 9.02519 121.828 8.96467 122.009 8.93441C122.13 8.90415 122.251 8.87389 122.372 8.84363C122.493 8.81337 122.584 8.78311 122.675 8.75285C122.766 8.72259 122.826 8.69233 122.887 8.63181C122.947 8.57129 122.978 8.51077 123.008 8.45025C123.038 8.38973 123.008 8.29895 123.008 8.23843C122.978 8.17791 122.947 8.11739 122.887 8.05686C122.826 7.99634 122.736 7.96608 122.615 7.93582C122.524 7.90556 122.463 7.90556 122.372 7.90556C122.282 7.90556 122.221 7.93582 122.161 7.93582C122.1 7.96608 122.04 7.99634 121.979 8.0266C121.919 8.05686 121.858 8.08712 121.828 8.11738L121.586 7.66348C121.616 7.63322 121.676 7.60296 121.767 7.5727C121.858 7.54244 121.949 7.51218 122.04 7.48192C122.161 7.45166 122.282 7.45166 122.403 7.45166C122.524 7.45166 122.675 7.45166 122.826 7.51218C123.038 7.5727 123.189 7.63322 123.31 7.75426C123.432 7.84504 123.522 7.96608 123.583 8.11738C123.643 8.26869 123.643 8.38973 123.583 8.54103C123.553 8.66207 123.492 8.75285 123.432 8.84363C123.371 8.93441 123.28 8.99493 123.189 9.02519C123.099 9.08571 123.008 9.11597 122.917 9.14623C122.826 9.17649 122.736 9.20675 122.675 9.20675C122.524 9.23701 122.433 9.26727 122.312 9.29753C122.221 9.32779 122.13 9.35805 122.04 9.38832C121.979 9.41858 121.888 9.44884 121.858 9.50936C121.828 9.56988 121.767 9.60014 121.707 9.66066L123.25 10.054L123.129 10.5079L120.95 9.99352Z" fill="white"/>
  <path d="M126.427 10.7197C126.276 10.9618 126.125 11.1434 125.913 11.2947C125.701 11.4157 125.489 11.5065 125.277 11.5065C125.066 11.5065 124.854 11.4762 124.642 11.3552C124.43 11.2341 124.279 11.0828 124.188 10.871C124.097 10.6592 124.037 10.4474 124.067 10.2053C124.067 9.96321 124.158 9.72113 124.309 9.47905C124.46 9.23697 124.612 9.0554 124.823 8.9041C125.035 8.78306 125.247 8.69228 125.459 8.69228C125.671 8.66202 125.913 8.72254 126.094 8.84358C126.306 8.96462 126.458 9.11593 126.548 9.32775C126.639 9.53957 126.7 9.75139 126.669 9.99347C126.639 10.2356 126.579 10.4776 126.427 10.7197ZM125.943 10.4474C126.034 10.2961 126.094 10.1145 126.125 9.96321C126.155 9.81191 126.125 9.66061 126.064 9.53957C126.004 9.41853 125.913 9.32775 125.822 9.26723C125.701 9.20671 125.58 9.17645 125.429 9.17645C125.308 9.20671 125.156 9.23697 125.035 9.35801C124.914 9.44879 124.793 9.56983 124.702 9.75139C124.612 9.93295 124.551 10.0843 124.521 10.2356C124.491 10.3869 124.521 10.5382 124.581 10.6592C124.642 10.7802 124.733 10.871 124.854 10.9618C124.975 11.0223 125.096 11.0526 125.217 11.0223C125.338 10.9921 125.489 10.9618 125.61 10.871C125.731 10.7802 125.852 10.5987 125.943 10.4474Z" fill="white"/>
  <path d="M126.094 12.2327C126.185 12.1419 126.276 12.0511 126.397 11.9906C126.488 11.9301 126.609 11.8695 126.73 11.8393C126.851 11.809 126.972 11.7788 127.093 11.809C127.244 11.809 127.396 11.8393 127.547 11.8998C127.668 11.9301 127.789 11.9603 127.88 12.0209C128.001 12.0511 128.092 12.0814 128.182 12.1116C128.273 12.1419 128.364 12.1419 128.424 12.1116C128.485 12.1116 128.545 12.0814 128.606 12.0209C128.666 11.9603 128.697 11.8998 128.697 11.8393C128.727 11.7788 128.697 11.688 128.697 11.5972C128.666 11.5064 128.606 11.4459 128.545 11.3551C128.485 11.2946 128.424 11.2341 128.364 11.2038C128.303 11.1736 128.243 11.1433 128.152 11.113C128.092 11.0828 128.031 11.0828 127.94 11.0828C127.88 11.0828 127.819 11.0828 127.759 11.0828L127.789 10.5684C127.849 10.5684 127.91 10.5684 128.001 10.5986C128.092 10.5986 128.182 10.6289 128.273 10.6591C128.364 10.6894 128.485 10.7499 128.606 10.8104C128.727 10.871 128.818 10.9617 128.939 11.0828C129.09 11.2341 129.181 11.3854 129.241 11.5367C129.302 11.688 129.302 11.8393 129.272 11.9906C129.241 12.1419 129.181 12.2629 129.06 12.3537C128.969 12.4445 128.878 12.505 128.788 12.5353C128.697 12.5655 128.576 12.5655 128.485 12.5655C128.394 12.5655 128.273 12.5353 128.182 12.5353C128.092 12.505 128.001 12.4748 127.91 12.4748C127.789 12.4142 127.668 12.384 127.547 12.3537C127.456 12.3235 127.365 12.2932 127.275 12.2932C127.184 12.2932 127.123 12.2932 127.063 12.2932C127.002 12.2932 126.911 12.3235 126.851 12.3537L127.97 13.5036L127.638 13.8365L126.094 12.2327Z" fill="white"/>
  <path d="M129.726 14.9864C129.786 15.1075 129.786 15.2588 129.756 15.3798C129.726 15.5009 129.695 15.6219 129.605 15.743C129.514 15.864 129.423 15.9548 129.272 16.0153C129.09 16.1061 128.909 16.1666 128.727 16.1363C128.545 16.1363 128.364 16.0758 128.213 15.9548C128.061 15.8337 127.91 15.6824 127.789 15.4706C127.668 15.2588 127.607 15.047 127.577 14.8351C127.547 14.6233 127.577 14.4418 127.668 14.2602L128.152 14.351C128.092 14.472 128.061 14.6233 128.061 14.7444C128.061 14.8957 128.122 15.047 128.213 15.1983C128.303 15.3798 128.424 15.5009 128.576 15.5614C128.727 15.6219 128.878 15.5917 129.03 15.5009C129.211 15.4101 129.302 15.289 129.332 15.1075C129.362 14.9562 129.332 14.7444 129.181 14.5325L129.12 14.4115L129.514 14.1997L129.574 14.3207C129.695 14.5023 129.816 14.6233 129.968 14.6838C130.119 14.7444 130.27 14.7141 130.391 14.6536C130.482 14.5931 130.543 14.5325 130.573 14.472C130.603 14.4115 130.633 14.3207 130.603 14.2299C130.603 14.1392 130.543 14.0484 130.512 13.9576C130.422 13.8063 130.331 13.7155 130.21 13.6247C130.089 13.5642 129.937 13.5037 129.786 13.5037L129.937 13.0195C130.058 13.0195 130.18 13.0498 130.301 13.1103C130.422 13.1708 130.543 13.2616 130.664 13.3524C130.785 13.4734 130.876 13.5945 130.966 13.7155C131.057 13.8971 131.118 14.0786 131.148 14.2602C131.178 14.4418 131.148 14.5931 131.057 14.7444C130.997 14.8957 130.876 14.9864 130.724 15.0772C130.603 15.1377 130.482 15.168 130.361 15.1983C130.24 15.1983 130.119 15.1983 129.998 15.168C129.907 15.1377 129.816 15.0772 129.726 14.9864Z" fill="white"/>
  <path d="M17.2786 40.1326V37.9236H17.7022V40.1326H17.2786Z" fill="white"/>
  <path d="M19.7902 40.1326H19.3666V39.2248C19.3666 39.1037 19.3363 39.013 19.3061 38.9524C19.2455 38.8919 19.185 38.8617 19.1245 38.8617C19.064 38.8617 19.0035 38.8617 18.9429 38.8919C18.8824 38.9222 18.8219 38.9524 18.7916 39.013C18.7614 39.0735 18.7009 39.134 18.7009 39.1945V40.1326H18.2772V38.5288H18.6403V38.8314C18.6706 38.7709 18.7311 38.7104 18.7916 38.6498C18.8522 38.5893 18.9429 38.5591 19.0035 38.5288C19.0942 38.4985 19.185 38.4985 19.2758 38.4985C19.3666 38.4985 19.4574 38.5288 19.5179 38.5591C19.5784 38.5893 19.6389 38.6498 19.6692 38.7104C19.6995 38.7709 19.7297 38.8314 19.7297 38.9222C19.7297 38.9827 19.76 39.0735 19.76 39.1643V40.1326H19.7902Z" fill="white"/>
  <path d="M20.9098 40.1628C20.7585 40.1628 20.6375 40.1326 20.5165 40.1023C20.3954 40.0721 20.2744 39.9813 20.1836 39.8905L20.3349 39.6182C20.4257 39.7089 20.5165 39.7695 20.6072 39.7997C20.698 39.83 20.7888 39.8602 20.8796 39.8602C20.9704 39.8602 21.0309 39.8602 21.0611 39.83C21.0914 39.7997 21.1217 39.7695 21.1217 39.7089C21.1217 39.6787 21.1217 39.6484 21.0914 39.6182C21.0611 39.5879 21.0309 39.5879 20.9704 39.5576C20.9098 39.5274 20.8493 39.5274 20.7888 39.4971C20.6678 39.4669 20.577 39.4063 20.4862 39.3761C20.3954 39.3458 20.3349 39.2853 20.3046 39.2248C20.2744 39.1643 20.2744 39.1037 20.2744 39.013C20.2744 38.9222 20.3046 38.8011 20.3652 38.7406C20.4257 38.6498 20.4862 38.5893 20.6072 38.5591C20.698 38.5288 20.8191 38.4985 20.9401 38.4985C21.0611 38.4985 21.1519 38.5288 21.273 38.5591C21.3637 38.5893 21.4848 38.6498 21.5453 38.7406L21.3637 39.013C21.273 38.9524 21.2124 38.8919 21.1217 38.8617C21.0611 38.8314 20.9704 38.8314 20.9098 38.8314C20.8796 38.8314 20.8191 38.8314 20.7888 38.8617C20.7585 38.8617 20.7283 38.8919 20.698 38.9222C20.6678 38.9524 20.6678 38.9827 20.6678 39.013C20.6678 39.0432 20.6678 39.0735 20.698 39.1037C20.7283 39.134 20.7585 39.134 20.7888 39.1643C20.8191 39.1945 20.8796 39.1945 20.9401 39.2248C21.0611 39.255 21.1822 39.2853 21.273 39.3458C21.3637 39.3761 21.4243 39.4366 21.4848 39.4971C21.5453 39.5576 21.5453 39.6182 21.5453 39.7392C21.5453 39.8905 21.4848 40.0115 21.3637 40.1023C21.2427 40.1326 21.0914 40.1628 20.9098 40.1628Z" fill="white"/>
  <path d="M22.9373 40.0418C22.907 40.0418 22.8465 40.0721 22.8162 40.1023C22.7557 40.1326 22.7254 40.1326 22.6649 40.1326C22.6044 40.1326 22.5439 40.1629 22.4834 40.1629C22.3926 40.1629 22.3321 40.1629 22.2715 40.1326C22.211 40.1023 22.1505 40.0721 22.1202 40.0116C22.09 39.951 22.0597 39.8905 22.0597 39.7695V38.8314H21.8479V38.4986H22.0597V37.9841H22.4834V38.4986H22.8162V38.8314H22.4834V39.6182C22.4834 39.6787 22.5136 39.709 22.5439 39.7392C22.5741 39.7695 22.6044 39.7695 22.6649 39.7695C22.6952 39.7695 22.7557 39.7695 22.786 39.7392C22.8162 39.7392 22.8465 39.709 22.8767 39.709L22.9373 40.0418Z" fill="white"/>
  <path d="M23.3307 38.2867V37.863H23.7543V38.2867H23.3307ZM23.3307 40.1326V38.4985H23.7543V40.1326H23.3307Z" fill="white"/>
  <path d="M25.2371 40.0418C25.2068 40.0418 25.1463 40.0721 25.116 40.1023C25.0555 40.1326 25.0253 40.1326 24.9647 40.1326C24.9042 40.1326 24.8437 40.1629 24.7832 40.1629C24.6924 40.1629 24.6319 40.1629 24.5713 40.1326C24.5108 40.1023 24.4503 40.0721 24.42 40.0116C24.3898 39.951 24.3595 39.8905 24.3595 39.7695V38.8314H24.1477V38.4986H24.3595V37.9841H24.7832V38.4986H25.116V38.8314H24.7832V39.6182C24.7832 39.6787 24.8134 39.709 24.8437 39.7392C24.8739 39.7695 24.9042 39.7695 24.9647 39.7695C24.995 39.7695 25.0555 39.7695 25.0858 39.7392C25.116 39.7392 25.1463 39.709 25.1766 39.709L25.2371 40.0418Z" fill="white"/>
  <path d="M25.6001 39.5274V38.5288H26.0237V39.4366C26.0237 39.5577 26.054 39.6484 26.0843 39.709C26.1145 39.7695 26.2053 39.7997 26.2961 39.7997C26.3566 39.7997 26.4171 39.7997 26.4474 39.7695C26.5079 39.7392 26.5382 39.709 26.5987 39.6787C26.6289 39.6484 26.6895 39.5879 26.7197 39.5274V38.5288H27.1434V39.6787C27.1434 39.709 27.1434 39.7392 27.1736 39.7695C27.2039 39.7997 27.2039 39.7997 27.2644 39.7997V40.1326C27.2342 40.1326 27.1736 40.1326 27.1736 40.1326C27.1434 40.1326 27.1131 40.1326 27.0828 40.1326C27.0223 40.1326 26.9618 40.1023 26.9013 40.0721C26.8408 40.0418 26.8408 39.9813 26.8105 39.9208V39.7997C26.75 39.9208 26.6592 39.9813 26.5382 40.0418C26.4171 40.1023 26.2961 40.1326 26.175 40.1326C25.9935 40.1326 25.8724 40.0721 25.7817 39.9813C25.6304 39.8905 25.6001 39.7392 25.6001 39.5274Z" fill="white"/>
  <path d="M28.6262 40.0418C28.596 40.0418 28.5355 40.0721 28.5052 40.1023C28.4447 40.1326 28.4144 40.1326 28.3539 40.1326C28.2934 40.1326 28.2329 40.1629 28.1723 40.1629C28.0815 40.1629 28.021 40.1629 27.9605 40.1326C27.9 40.1023 27.8395 40.0721 27.8092 40.0116C27.7789 39.951 27.7487 39.8905 27.7487 39.7695V38.8314H27.5369V38.4986H27.7487V37.9841H28.1723V38.4986H28.5052V38.8314H28.1723V39.6182C28.1723 39.6787 28.2026 39.709 28.2329 39.7392C28.2631 39.7695 28.2934 39.7695 28.3539 39.7695C28.3842 39.7695 28.4447 39.7695 28.4749 39.7392C28.5052 39.7392 28.5355 39.709 28.5657 39.709L28.6262 40.0418Z" fill="white"/>
  <path d="M29.8063 39.013C29.8063 38.8919 29.8365 38.7406 29.8668 38.6196C29.9273 38.4985 29.9878 38.3775 30.0786 38.2564C30.1694 38.1354 30.2904 38.0749 30.4115 38.0144C30.5325 37.9538 30.6838 37.9236 30.8654 37.9236C31.0772 37.9236 31.2285 37.9538 31.3798 38.0446C31.5311 38.1354 31.6521 38.2564 31.7127 38.3775L31.3798 38.5893C31.3495 38.4985 31.289 38.438 31.2285 38.4077C31.168 38.3775 31.1075 38.317 31.0469 38.317C30.9864 38.2867 30.9259 38.2867 30.8351 38.2867C30.7141 38.2867 30.6233 38.317 30.5628 38.3472C30.472 38.3775 30.4115 38.438 30.351 38.5288C30.2904 38.5893 30.2602 38.6801 30.2299 38.7709C30.1997 38.8616 30.1997 38.9524 30.1997 39.0432C30.1997 39.134 30.2299 39.2248 30.2602 39.3156C30.2904 39.4063 30.3207 39.4971 30.3812 39.5576C30.4417 39.6182 30.5023 39.6787 30.593 39.7089C30.6838 39.7392 30.7746 39.7695 30.8654 39.7695C30.9259 39.7695 31.0167 39.7695 31.0772 39.7392C31.1377 39.7089 31.1982 39.6787 31.2588 39.6182C31.3193 39.5576 31.3798 39.4971 31.4101 39.4366L31.7732 39.6484C31.7429 39.7695 31.6521 39.8602 31.5614 39.9208C31.4706 40.0115 31.3495 40.0418 31.2285 40.1023C31.1075 40.1326 30.9864 40.1628 30.8654 40.1628C30.7141 40.1628 30.5628 40.1326 30.4417 40.0721C30.3207 40.0115 30.1997 39.9208 30.1089 39.7997C30.0181 39.6787 29.9273 39.5576 29.8971 39.4366C29.8365 39.2853 29.8063 39.1643 29.8063 39.013Z" fill="white"/>
  <path d="M32.1666 39.5274V38.5288H32.5903V39.4366C32.5903 39.5577 32.6205 39.6484 32.6508 39.709C32.681 39.7695 32.7718 39.7997 32.8626 39.7997C32.9231 39.7997 32.9837 39.7997 33.0139 39.7695C33.0744 39.7392 33.1047 39.709 33.1652 39.6787C33.1955 39.6484 33.256 39.5879 33.2863 39.5274V38.5288H33.7099V39.6787C33.7099 39.709 33.7099 39.7392 33.7402 39.7695C33.7704 39.7997 33.7704 39.7997 33.8309 39.7997V40.1326C33.8007 40.1326 33.7402 40.1326 33.7402 40.1326C33.7099 40.1326 33.6796 40.1326 33.6494 40.1326C33.5889 40.1326 33.5283 40.1023 33.4678 40.0721C33.4073 40.0418 33.4073 39.9813 33.377 39.9208V39.7997C33.3165 39.9208 33.2257 39.9813 33.1047 40.0418C32.9837 40.1023 32.8626 40.1326 32.7416 40.1326C32.56 40.1326 32.439 40.0721 32.3482 39.9813C32.2271 39.8905 32.1666 39.7392 32.1666 39.5274Z" fill="white"/>
  <path d="M35.2228 38.8616C35.1018 38.8616 34.9808 38.8919 34.89 38.9222C34.7992 38.9827 34.7084 39.0432 34.6782 39.134V40.1023H34.2545V38.4985H34.6479V38.8314C34.7084 38.7103 34.7689 38.6196 34.8597 38.559C34.9505 38.4985 35.0413 38.4683 35.1321 38.4683C35.1623 38.4683 35.1623 38.4683 35.1926 38.4683C35.2228 38.4683 35.2228 38.4683 35.2228 38.4683V38.8616Z" fill="white"/>
  <path d="M35.6162 38.2867V37.863H36.0399V38.2867H35.6162ZM35.6162 40.1326V38.4985H36.0399V40.1326H35.6162Z" fill="white"/>
  <path d="M37.3109 40.1628C37.1899 40.1628 37.0688 40.1326 36.9478 40.1023C36.857 40.0721 36.7662 40.0115 36.6754 39.9208C36.5846 39.83 36.5544 39.7695 36.4939 39.6484C36.4636 39.5576 36.4333 39.4366 36.4333 39.3458C36.4333 39.1945 36.4636 39.0432 36.5241 38.9222C36.5846 38.8011 36.7057 38.6801 36.8267 38.6196C36.9478 38.5591 37.0991 38.4985 37.2806 38.4985C37.4622 38.4985 37.6135 38.5288 37.7345 38.6196C37.8556 38.7104 37.9464 38.8011 38.0371 38.9222C38.0977 39.0432 38.1279 39.1945 38.1279 39.3156C38.1279 39.3458 38.1279 39.3761 38.1279 39.3761C38.1279 39.4063 38.1279 39.4366 38.1279 39.4366H36.8873C36.8873 39.5274 36.9175 39.5879 36.9478 39.6484C36.978 39.7089 37.0386 39.7695 37.0991 39.7997C37.1596 39.83 37.2201 39.8602 37.3109 39.8602C37.4017 39.8602 37.4622 39.83 37.553 39.7997C37.6135 39.7695 37.674 39.7089 37.7043 39.6484L38.0674 39.7392C38.0371 39.83 37.9766 39.8905 37.8858 39.951C37.8253 40.0115 37.7345 40.0721 37.6135 40.1023C37.5227 40.1628 37.4319 40.1628 37.3109 40.1628ZM36.8873 39.1945H37.7345C37.7345 39.1037 37.7043 39.0432 37.674 38.9827C37.6438 38.9222 37.5832 38.8919 37.5227 38.8314C37.4622 38.8011 37.4017 38.7709 37.3109 38.7709C37.2504 38.7709 37.1596 38.8011 37.0991 38.8314C37.0386 38.8617 36.978 38.9222 36.9478 38.9827C36.9175 39.0432 36.8873 39.134 36.8873 39.1945Z" fill="white"/>
  <path d="M39.3685 39.3458C39.3685 39.1945 39.3988 39.0432 39.4593 38.9221C39.5198 38.8011 39.6106 38.7103 39.7014 38.6195C39.8224 38.559 39.9435 38.4985 40.0645 38.4985C40.1856 38.4985 40.3066 38.5288 40.3974 38.5893C40.4882 38.6498 40.5789 38.7103 40.6092 38.8011V37.863H41.0328V39.6484C41.0328 39.6787 41.0328 39.7089 41.0631 39.7392C41.0631 39.7694 41.0934 39.7694 41.1236 39.7694V40.1023C41.0631 40.1023 41.0026 40.1326 40.9421 40.1326C40.8815 40.1326 40.821 40.1023 40.7605 40.072C40.7 40.0418 40.6697 39.9813 40.6697 39.9207V39.83C40.6092 39.9207 40.5184 40.0115 40.4276 40.072C40.3369 40.1326 40.2158 40.1628 40.0948 40.1628C39.9737 40.1628 39.883 40.1326 39.7922 40.1023C39.7014 40.072 39.6106 40.0115 39.5501 39.9207C39.4896 39.8602 39.429 39.7694 39.3988 39.6484C39.3685 39.5274 39.3685 39.4366 39.3685 39.3458ZM40.6395 39.5576V39.1642C40.6092 39.1037 40.5789 39.0432 40.5487 39.0129C40.5184 38.9524 40.4579 38.9221 40.3974 38.8919C40.3369 38.8616 40.2763 38.8616 40.2158 38.8616C40.1553 38.8616 40.0948 38.8616 40.0343 38.8919C39.9737 38.9221 39.9435 38.9524 39.9132 39.0129C39.883 39.0432 39.8527 39.1037 39.8224 39.1642C39.7922 39.2247 39.7922 39.2853 39.7922 39.3458C39.7922 39.4063 39.7922 39.4668 39.8224 39.5274C39.8527 39.5879 39.883 39.6484 39.9132 39.6787C39.9435 39.7089 40.004 39.7694 40.0645 39.7694C40.125 39.7694 40.1856 39.7997 40.2461 39.7997C40.2763 39.7997 40.3369 39.7997 40.3671 39.7694C40.3974 39.7694 40.4579 39.7392 40.4882 39.7089C40.5184 39.6787 40.5487 39.6484 40.5789 39.6181C40.6092 39.5879 40.6092 39.5879 40.6395 39.5576Z" fill="white"/>
  <path d="M42.3644 40.1628C42.2433 40.1628 42.1223 40.1326 42.0012 40.1023C41.9105 40.0721 41.8197 40.0115 41.7289 39.9208C41.6381 39.83 41.6079 39.7695 41.5473 39.6484C41.5171 39.5576 41.4868 39.4366 41.4868 39.3458C41.4868 39.1945 41.5171 39.0432 41.5776 38.9222C41.6381 38.8011 41.7592 38.6801 41.8802 38.6196C42.0012 38.5591 42.1525 38.4985 42.3341 38.4985C42.5157 38.4985 42.667 38.5288 42.788 38.6196C42.909 38.7104 42.9998 38.8011 43.0906 38.9222C43.1511 39.0432 43.1814 39.1945 43.1814 39.3156C43.1814 39.3458 43.1814 39.3761 43.1814 39.3761C43.1814 39.4063 43.1814 39.4366 43.1814 39.4366H41.9407C41.9407 39.5274 41.971 39.5879 42.0012 39.6484C42.0315 39.7089 42.092 39.7695 42.1525 39.7997C42.2131 39.83 42.2736 39.8602 42.3644 39.8602C42.4551 39.8602 42.5157 39.83 42.6064 39.7997C42.667 39.7695 42.7275 39.7089 42.7577 39.6484L43.1209 39.7392C43.0906 39.83 43.0301 39.8905 42.9393 39.951C42.8788 40.0115 42.788 40.0721 42.667 40.1023C42.5762 40.1628 42.4854 40.1628 42.3644 40.1628ZM41.9407 39.1945H42.788C42.788 39.1037 42.7577 39.0432 42.7275 38.9827C42.6972 38.9222 42.6367 38.8919 42.5762 38.8314C42.5157 38.8011 42.4551 38.7709 42.3644 38.7709C42.3038 38.7709 42.2131 38.8011 42.1525 38.8314C42.092 38.8617 42.0315 38.9222 42.0012 38.9827C41.971 39.0432 41.9407 39.134 41.9407 39.1945Z" fill="white"/>
  <path d="M44.5128 37.863H44.9364V39.6181C44.9364 39.6787 44.9364 39.7392 44.9667 39.7694C44.997 39.7997 45.0272 39.7997 45.0575 39.7997C45.0877 39.7997 45.118 39.7997 45.1483 39.7997C45.1785 39.7997 45.2088 39.7694 45.239 39.7694L45.2996 40.072C45.239 40.1023 45.1785 40.1326 45.118 40.1326C45.0575 40.1326 44.9667 40.1628 44.9062 40.1628C44.7851 40.1628 44.6641 40.1326 44.6036 40.072C44.5431 40.0115 44.4825 39.8905 44.4825 39.7694V37.863H44.5128Z" fill="white"/>
  <path d="M45.6022 38.5893V37.8933H45.9653V38.5893H45.6022Z" fill="white"/>
  <path d="M46.51 40.1326V37.9236H46.9337V40.1326H46.51Z" fill="white"/>
  <path d="M49.0216 40.1326H48.5979V39.2248C48.5979 39.1037 48.5677 39.013 48.5374 38.9524C48.4769 38.8919 48.4164 38.8617 48.3558 38.8617C48.2953 38.8617 48.2348 38.8617 48.1743 38.8919C48.1137 38.9222 48.0532 38.9524 48.023 39.013C47.9927 39.0735 47.9322 39.134 47.9322 39.1945V40.1326H47.5085V38.5288H47.8717V38.8314C47.9019 38.7709 47.9624 38.7104 48.023 38.6498C48.0835 38.5893 48.1743 38.5591 48.2348 38.5288C48.3256 38.4985 48.4164 38.4985 48.5071 38.4985C48.5979 38.4985 48.6887 38.5288 48.7492 38.5591C48.8097 38.5893 48.8703 38.6498 48.9005 38.7104C48.9308 38.7709 48.961 38.8314 48.961 38.9222C48.961 38.9827 48.9913 39.0735 48.9913 39.1643V40.1326H49.0216Z" fill="white"/>
  <path d="M49.4452 39.3458C49.4452 39.1945 49.4755 39.0432 49.536 38.9221C49.5965 38.8011 49.6873 38.7103 49.7781 38.6195C49.8991 38.559 50.0201 38.4985 50.1412 38.4985C50.2622 38.4985 50.3833 38.5288 50.474 38.5893C50.5648 38.6498 50.6556 38.7103 50.6859 38.8011V37.863H51.1095V39.6484C51.1095 39.6787 51.1095 39.7089 51.1398 39.7392C51.1398 39.7694 51.17 39.7694 51.2003 39.7694V40.1023C51.1398 40.1023 51.0792 40.1326 51.0187 40.1326C50.9582 40.1326 50.8977 40.1023 50.8372 40.072C50.7766 40.0418 50.7464 39.9813 50.7464 39.9207V39.83C50.6859 39.9207 50.5951 40.0115 50.5043 40.072C50.4135 40.1326 50.2925 40.1628 50.1714 40.1628C50.0504 40.1628 49.9596 40.1326 49.8688 40.1023C49.7781 40.072 49.6873 40.0115 49.6268 39.9207C49.5662 39.8602 49.5057 39.7694 49.4755 39.6484C49.4452 39.5274 49.4452 39.4366 49.4452 39.3458ZM50.7161 39.5576V39.1642C50.6859 39.1037 50.6556 39.0432 50.6253 39.0129C50.5951 38.9524 50.5346 38.9221 50.474 38.8919C50.4135 38.8616 50.353 38.8616 50.2925 38.8616C50.232 38.8616 50.1714 38.8616 50.1109 38.8919C50.0504 38.9221 50.0201 38.9524 49.9899 39.0129C49.9596 39.0432 49.9294 39.1037 49.8991 39.1642C49.8688 39.2247 49.8688 39.2853 49.8688 39.3458C49.8688 39.4063 49.8688 39.4668 49.8991 39.5274C49.9294 39.5879 49.9596 39.6484 49.9899 39.6787C50.0201 39.7089 50.0807 39.7694 50.1412 39.7694C50.2017 39.7694 50.2622 39.7997 50.3227 39.7997C50.353 39.7997 50.4135 39.7997 50.4438 39.7694C50.474 39.7694 50.5346 39.7392 50.5648 39.7089C50.5951 39.6787 50.6253 39.6484 50.6556 39.6181C50.6859 39.5879 50.6859 39.5879 50.7161 39.5576Z" fill="white"/>
  <path d="M52.441 40.1628C52.32 40.1628 52.1989 40.1326 52.0779 40.1023C51.9871 40.0721 51.8963 40.0115 51.8056 39.9208C51.745 39.83 51.6845 39.7695 51.624 39.6484C51.5937 39.5576 51.5635 39.4366 51.5635 39.3458C51.5635 39.2248 51.5937 39.134 51.624 39.013C51.6543 38.9222 51.7148 38.8314 51.8056 38.7406C51.8661 38.6498 51.9569 38.5893 52.0779 38.5591C52.1687 38.5288 52.2897 38.4985 52.441 38.4985C52.5923 38.4985 52.6831 38.5288 52.8041 38.5591C52.8949 38.5893 52.9857 38.6498 53.0765 38.7406C53.137 38.8314 53.1975 38.8919 53.2581 39.013C53.2883 39.1037 53.3186 39.2248 53.3186 39.3458C53.3186 39.4669 53.2883 39.5576 53.2581 39.6484C53.2278 39.7392 53.1673 39.83 53.0765 39.9208C53.016 40.0115 52.9252 40.0721 52.8041 40.1023C52.6831 40.1326 52.5621 40.1628 52.441 40.1628ZM52.0174 39.3458C52.0174 39.4366 52.0476 39.5274 52.0779 39.5879C52.1082 39.6484 52.1687 39.7089 52.2292 39.7695C52.2897 39.7997 52.3502 39.83 52.441 39.83C52.5318 39.83 52.5923 39.7997 52.6528 39.7695C52.7134 39.7392 52.7739 39.6787 52.8041 39.5879C52.8344 39.5274 52.8647 39.4366 52.8647 39.3458C52.8647 39.255 52.8344 39.1643 52.8041 39.1037C52.7739 39.0432 52.7134 38.9827 52.6528 38.9222C52.5923 38.8617 52.5318 38.8617 52.441 38.8617C52.3502 38.8617 52.2897 38.8919 52.2292 38.9222C52.1687 38.9524 52.1082 39.013 52.0779 39.1037C52.0476 39.1945 52.0174 39.255 52.0174 39.3458Z" fill="white"/>
  <path d="M54.4684 40.1628C54.3473 40.1628 54.2263 40.1326 54.1052 40.1023C54.0145 40.0721 53.9237 40.0115 53.8329 39.9208C53.7724 39.83 53.7119 39.7392 53.6513 39.6484C53.6211 39.5576 53.5908 39.4366 53.5908 39.3458C53.5908 39.1945 53.6211 39.0432 53.6816 38.9222C53.7421 38.8011 53.8632 38.7104 53.9842 38.6196C54.1052 38.5591 54.2565 38.4985 54.4381 38.4985C54.6197 38.4985 54.771 38.5288 54.892 38.6196C55.013 38.7104 55.1038 38.8011 55.1644 38.9222L54.771 39.0432C54.7407 38.9827 54.6802 38.9524 54.6197 38.8919C54.5591 38.8314 54.4986 38.8314 54.4381 38.8314C54.3473 38.8314 54.2868 38.8617 54.2263 38.8919C54.1658 38.9222 54.1052 38.9827 54.075 39.0735C54.0447 39.1643 54.0145 39.2248 54.0145 39.3156C54.0145 39.4063 54.0447 39.4971 54.075 39.5576C54.1052 39.6182 54.1658 39.6787 54.2263 39.7392C54.2868 39.7695 54.3473 39.7997 54.4381 39.7997C54.4986 39.7997 54.5289 39.7997 54.5894 39.7695C54.6197 39.7392 54.6802 39.7392 54.7104 39.7089C54.7407 39.6787 54.771 39.6484 54.8012 39.6182L55.1946 39.7392C55.1643 39.83 55.1038 39.8905 55.0433 39.951C54.9828 40.0115 54.892 40.0721 54.8012 40.1023C54.7104 40.1628 54.5894 40.1628 54.4684 40.1628Z" fill="white"/>
  <path d="M57.1313 40.1326H56.7077V39.2247C56.7077 39.1037 56.6774 39.0129 56.6471 38.9524C56.5866 38.8919 56.5261 38.8616 56.4353 38.8616C56.3748 38.8616 56.3445 38.8616 56.284 38.8919C56.2235 38.9221 56.1932 38.9524 56.1327 39.0129C56.1024 39.0734 56.0419 39.134 56.0419 39.1945V40.1326H55.6183V37.863H56.0419V38.8011C56.1024 38.7103 56.1932 38.6195 56.284 38.559C56.3748 38.4985 56.4958 38.4682 56.6169 38.4682C56.7077 38.4682 56.7984 38.4985 56.859 38.5288C56.9195 38.559 56.98 38.6195 57.0103 38.6801C57.0405 38.7406 57.0708 38.8011 57.101 38.8919C57.101 38.9524 57.1313 39.0432 57.1313 39.134V40.1326Z" fill="white"/>
  <path d="M57.6458 38.2867V37.863H58.0694V38.2867H57.6458ZM57.6458 40.1326V38.4985H58.0694V40.1326H57.6458Z" fill="white"/>
  <path d="M60.0969 40.1326H59.6732V39.2248C59.6732 39.1037 59.643 39.013 59.6127 38.9524C59.5522 38.8919 59.4917 38.8617 59.4311 38.8617C59.3706 38.8617 59.3101 38.8617 59.2496 38.8919C59.1891 38.9222 59.1285 38.9524 59.0983 39.013C59.068 39.0735 59.0075 39.134 59.0075 39.1945V40.1326H58.5839V38.5288H58.947V38.8314C58.9772 38.7709 59.0378 38.7104 59.0983 38.6498C59.1588 38.5893 59.2496 38.5591 59.3101 38.5288C59.4009 38.4985 59.4917 38.4985 59.5824 38.4985C59.6732 38.4985 59.764 38.5288 59.8245 38.5591C59.885 38.5893 59.9456 38.6498 59.9758 38.7104C60.0061 38.7709 60.0363 38.8314 60.0363 38.9222C60.0363 38.9827 60.0666 39.0735 60.0666 39.1643V40.1326H60.0969Z" fill="white"/>
  <path d="M61.3678 40.1628C61.2467 40.1628 61.1257 40.1326 61.0047 40.1023C60.9139 40.0721 60.8231 40.0115 60.7323 39.9208C60.6415 39.83 60.6113 39.7695 60.5508 39.6484C60.5205 39.5576 60.4902 39.4366 60.4902 39.3458C60.4902 39.1945 60.5205 39.0432 60.581 38.9222C60.6415 38.8011 60.7626 38.6801 60.8836 38.6196C61.0047 38.5591 61.156 38.4985 61.3375 38.4985C61.5191 38.4985 61.6704 38.5288 61.7914 38.6196C61.9125 38.7104 62.0032 38.8011 62.094 38.9222C62.1545 39.0432 62.1848 39.1945 62.1848 39.3156C62.1848 39.3458 62.1848 39.3761 62.1848 39.3761C62.1848 39.4063 62.1848 39.4366 62.1848 39.4366H60.9441C60.9441 39.5274 60.9744 39.5879 61.0047 39.6484C61.0349 39.7089 61.0954 39.7695 61.156 39.7997C61.2165 39.83 61.277 39.8602 61.3678 39.8602C61.4586 39.8602 61.5191 39.83 61.6099 39.7997C61.6704 39.7695 61.7309 39.7089 61.7612 39.6484L62.1243 39.7392C62.094 39.83 62.0335 39.8905 61.9427 39.951C61.8822 40.0115 61.7914 40.0721 61.6704 40.1023C61.6099 40.1628 61.4888 40.1628 61.3678 40.1628ZM60.9441 39.1945H61.7914C61.7914 39.1037 61.7612 39.0432 61.7309 38.9827C61.7006 38.9222 61.6401 38.8919 61.5796 38.8314C61.5191 38.8011 61.4586 38.7709 61.3678 38.7709C61.3073 38.7709 61.2165 38.8011 61.156 38.8314C61.0954 38.8617 61.0349 38.9222 61.0047 38.9827C60.9744 39.0432 60.9441 39.134 60.9441 39.1945Z" fill="white"/>
  <path d="M19.185 42.0996V44.3691H18.7613V43.4008H17.7325V44.3691H17.2786V42.0996H17.7325V43.0074H18.7613V42.0996H19.185Z" fill="white"/>
  <path d="M20.5165 44.3994C20.3652 44.3994 20.2441 44.3691 20.1533 44.3388C20.0323 44.3086 19.9415 44.2178 19.881 44.1573C19.7902 44.0665 19.76 43.9757 19.6994 43.8849C19.6692 43.7941 19.6389 43.6731 19.6389 43.5521C19.6389 43.431 19.6692 43.3402 19.6994 43.2192C19.7297 43.1284 19.7902 43.0376 19.881 42.9469C19.9415 42.8561 20.0626 42.7956 20.1533 42.7653C20.2744 42.7048 20.3954 42.7048 20.5165 42.7048C20.6678 42.7048 20.7888 42.735 20.8796 42.7653C21.0006 42.7956 21.0914 42.8863 21.1519 42.9469C21.2427 43.0376 21.273 43.1284 21.3335 43.2192C21.3637 43.31 21.394 43.431 21.394 43.5521C21.394 43.6731 21.3637 43.7639 21.3335 43.8849C21.3032 43.9757 21.2427 44.0665 21.1519 44.1573C21.0611 44.248 20.9704 44.3086 20.8796 44.3388C20.7888 44.3691 20.6678 44.3994 20.5165 44.3994ZM20.0323 42.3417L20.3652 42.0088H20.6678L21.0006 42.3417L20.7888 42.4324L20.5165 42.2206L20.2441 42.4324L20.0323 42.3417ZM20.0928 43.5521C20.0928 43.6428 20.1231 43.7336 20.1533 43.7941C20.1836 43.8547 20.2441 43.9152 20.3046 43.9757C20.3652 44.006 20.4559 44.0362 20.5165 44.0362C20.6072 44.0362 20.6678 44.006 20.7283 43.9757C20.7888 43.9454 20.8493 43.8849 20.8796 43.7941C20.9098 43.7336 20.9401 43.6428 20.9401 43.5521C20.9401 43.4613 20.9098 43.3705 20.8796 43.31C20.8493 43.2495 20.7888 43.1889 20.7283 43.1284C20.6678 43.0982 20.577 43.0679 20.5165 43.0679C20.4257 43.0679 20.3652 43.0982 20.3046 43.1284C20.2441 43.1587 20.1836 43.2192 20.1533 43.31C20.1231 43.3705 20.0928 43.4613 20.0928 43.5521Z" fill="white"/>
  <path d="M22.8465 44.3994C22.7254 44.3994 22.6044 44.3691 22.5136 44.3086C22.4228 44.2481 22.3321 44.1573 22.2715 44.0665V45.0349H21.8479V42.7048H22.211V43.0074C22.2715 42.9166 22.3623 42.8259 22.4531 42.7653C22.5439 42.7048 22.6649 42.6746 22.786 42.6746C22.907 42.6746 22.9978 42.7048 23.0886 42.7351C23.1794 42.7653 23.2701 42.8561 23.3307 42.9166C23.3912 43.0074 23.4517 43.0982 23.482 43.189C23.5122 43.2798 23.5425 43.4008 23.5425 43.5218C23.5425 43.6731 23.5122 43.8244 23.4517 43.9455C23.3912 44.0665 23.3004 44.1876 23.1794 44.2481C23.1188 44.3691 22.9978 44.3994 22.8465 44.3994ZM22.7254 44.0363C22.786 44.0363 22.8465 44.0363 22.907 44.006C22.9675 43.9757 22.9978 43.9455 23.0583 43.885C23.0886 43.8244 23.1188 43.7942 23.1491 43.7337C23.1794 43.6731 23.1794 43.6126 23.1794 43.5521C23.1794 43.4916 23.1794 43.4311 23.1491 43.3705C23.1188 43.31 23.0886 43.2495 23.0583 43.2192C23.028 43.189 22.9675 43.1285 22.907 43.1285C22.8465 43.0982 22.786 43.0982 22.7254 43.0982C22.6952 43.0982 22.6347 43.0982 22.6044 43.1285C22.5741 43.1285 22.5136 43.1587 22.4834 43.189C22.4531 43.2192 22.4228 43.2495 22.3926 43.2798C22.3623 43.31 22.3321 43.3403 22.3321 43.4008V43.7942C22.3623 43.8547 22.3926 43.9152 22.4228 43.9455C22.4531 43.9757 22.5136 44.0363 22.5741 44.0665C22.6044 44.0363 22.6649 44.0363 22.7254 44.0363Z" fill="white"/>
  <path d="M24.0569 42.4627V42.0391H24.4805V42.4627H24.0569ZM24.0569 44.3691V42.7048H24.4805V44.3691H24.0569Z" fill="white"/>
  <path d="M26.0238 44.2784C25.9936 44.2784 25.933 44.3086 25.9028 44.3389C25.8423 44.3692 25.7817 44.3692 25.7515 44.3994C25.691 44.3994 25.6304 44.4297 25.5699 44.4297C25.4791 44.4297 25.4186 44.4297 25.3581 44.3994C25.2976 44.3692 25.2371 44.3389 25.2068 44.2784C25.1765 44.2179 25.1463 44.1271 25.1463 44.0363V43.068H24.9344V42.7351H25.116V42.1904H25.5397V42.7351H25.9028V43.068H25.5397V43.885C25.5397 43.9455 25.5699 43.9758 25.6002 44.006C25.6304 44.0363 25.6607 44.0363 25.7212 44.0363C25.7515 44.0363 25.812 44.0363 25.8423 44.006C25.8725 44.006 25.933 43.9758 25.933 43.9758L26.0238 44.2784Z" fill="white"/>
  <path d="M26.2961 43.885C26.2961 43.764 26.3264 43.6732 26.3869 43.6127C26.4474 43.5219 26.5382 43.4614 26.629 43.4311C26.75 43.4008 26.8711 43.3706 26.9921 43.3706C27.0526 43.3706 27.1434 43.3706 27.2039 43.4008C27.2645 43.4008 27.325 43.4311 27.3855 43.4614V43.3706C27.3855 43.2798 27.3552 43.189 27.2947 43.1285C27.2342 43.068 27.1434 43.0377 27.0224 43.0377C26.9316 43.0377 26.8408 43.068 26.75 43.0982C26.6593 43.1285 26.5685 43.189 26.4777 43.2495L26.3264 42.9772C26.4474 42.9167 26.5382 42.8562 26.6593 42.8259C26.7803 42.7956 26.9013 42.7654 27.0224 42.7654C27.2645 42.7654 27.446 42.8259 27.5671 42.9469C27.6881 43.068 27.7789 43.2193 27.7789 43.4614V43.9758C27.7789 44.0061 27.7789 44.0666 27.8092 44.0666C27.8394 44.0666 27.8394 44.0968 27.8999 44.0968V44.46C27.8697 44.46 27.8394 44.46 27.8092 44.4902C27.7789 44.4902 27.7486 44.4902 27.7184 44.4902C27.6276 44.4902 27.5671 44.46 27.5368 44.4297C27.5066 44.3994 27.4763 44.3389 27.446 44.2784V44.1876C27.3855 44.2784 27.2947 44.3389 27.1737 44.3994C27.0526 44.46 26.9619 44.4902 26.8408 44.4902C26.7198 44.4902 26.629 44.46 26.5382 44.4297C26.4474 44.3994 26.3869 44.3087 26.3264 44.2481C26.3264 44.0666 26.2961 43.9758 26.2961 43.885ZM27.325 43.9758C27.3553 43.9455 27.3553 43.9153 27.3855 43.9153C27.3855 43.885 27.4158 43.8548 27.4158 43.8548V43.7034C27.3552 43.6732 27.2947 43.6732 27.2645 43.6429C27.2039 43.6429 27.1434 43.6127 27.0829 43.6127C26.9619 43.6127 26.8711 43.6429 26.8106 43.6732C26.75 43.7337 26.6895 43.7942 26.6895 43.8548C26.6895 43.885 26.6895 43.9455 26.7198 43.9758C26.75 44.0061 26.7803 44.0363 26.8106 44.0666C26.8408 44.0968 26.9013 44.0968 26.9619 44.0968C27.0224 44.0968 27.0829 44.0968 27.1434 44.0666C27.2039 44.0363 27.2947 44.0061 27.325 43.9758Z" fill="white"/>
  <path d="M28.4144 42.0391H28.838V43.8547C28.838 43.9455 28.838 43.9757 28.8683 44.006C28.8986 44.0362 28.9288 44.0362 28.9591 44.0362C28.9893 44.0362 29.0196 44.0362 29.0499 44.0362C29.0801 44.0362 29.1104 44.006 29.1406 44.006L29.2012 44.3388C29.1406 44.3691 29.0801 44.3994 28.9893 44.3994C28.8986 44.3994 28.838 44.4296 28.7775 44.4296C28.6565 44.4296 28.5354 44.3994 28.4749 44.3086C28.4144 44.2481 28.3539 44.127 28.3539 44.006V42.0391H28.4144Z" fill="white"/>
  <path d="M30.8957 42.9166V44.3691H30.4418V42.0996H30.8049L31.985 43.5824V42.0996H32.4389V44.3691H32.0758L30.8957 42.9166Z" fill="white"/>
  <path d="M32.8929 43.885C32.8929 43.764 32.9232 43.6732 32.9837 43.6127C33.0442 43.5219 33.135 43.4614 33.2258 43.4311C33.3468 43.4008 33.4679 43.3706 33.5889 43.3706C33.6495 43.3706 33.7402 43.3706 33.8008 43.4008C33.8613 43.4008 33.9218 43.4311 33.9823 43.4614V43.3706C33.9823 43.2798 33.9521 43.189 33.8915 43.1285C33.831 43.068 33.7402 43.0377 33.6192 43.0377C33.5284 43.0377 33.4376 43.068 33.3468 43.0982C33.2561 43.1285 33.1653 43.189 33.0745 43.2495L32.9232 42.9772C33.0442 42.9167 33.135 42.8562 33.2561 42.8259C33.3771 42.7956 33.4981 42.7654 33.6192 42.7654C33.8613 42.7654 34.0428 42.8259 34.1639 42.9469C34.2849 43.068 34.3757 43.2193 34.3757 43.4614V43.9758C34.3757 44.0061 34.3757 44.0666 34.406 44.0666C34.4362 44.0666 34.4362 44.0968 34.4967 44.0968V44.46C34.4665 44.46 34.4362 44.46 34.406 44.4902C34.3757 44.4902 34.3454 44.4902 34.3152 44.4902C34.2244 44.4902 34.1639 44.46 34.1336 44.4297C34.1034 44.3994 34.0731 44.3389 34.0428 44.2784V44.1876C33.9823 44.2784 33.8915 44.3389 33.7705 44.3994C33.6495 44.46 33.5587 44.4902 33.4376 44.4902C33.3166 44.4902 33.2258 44.46 33.135 44.4297C33.0442 44.3994 32.9837 44.3087 32.9232 44.2481C32.9232 44.0666 32.8929 43.9758 32.8929 43.885ZM33.9218 43.9758C33.9521 43.9455 33.9521 43.9153 33.9823 43.9153C33.9823 43.885 34.0126 43.8548 34.0126 43.8548V43.7034C33.9521 43.6732 33.8915 43.6732 33.8613 43.6429C33.8008 43.6429 33.7402 43.6127 33.6797 43.6127C33.5587 43.6127 33.4679 43.6429 33.4074 43.6732C33.3468 43.7337 33.2863 43.7942 33.2863 43.8548C33.2863 43.885 33.2863 43.9455 33.3166 43.9758C33.3468 44.0061 33.3771 44.0363 33.4074 44.0666C33.4376 44.0968 33.4982 44.0968 33.5587 44.0968C33.6192 44.0968 33.6797 44.0968 33.7402 44.0666C33.8008 44.0363 33.8915 44.0061 33.9218 43.9758Z" fill="white"/>
  <path d="M35.9794 44.2784C35.9491 44.2784 35.8886 44.3086 35.8583 44.3389C35.7978 44.3692 35.7373 44.3692 35.707 44.3994C35.6465 44.3994 35.586 44.4297 35.5255 44.4297C35.4347 44.4297 35.3742 44.4297 35.3137 44.3994C35.2531 44.3692 35.1926 44.3389 35.1624 44.2784C35.1321 44.2179 35.1018 44.1271 35.1018 44.0363V43.068H34.89V42.7351H35.1018V42.1904H35.5255V42.7351H35.8886V43.068H35.5255V43.885C35.5255 43.9455 35.5557 43.9758 35.586 44.006C35.6163 44.0363 35.6465 44.0363 35.707 44.0363C35.7373 44.0363 35.7978 44.0363 35.8281 44.006C35.8583 44.006 35.9189 43.9758 35.9189 43.9758L35.9794 44.2784Z" fill="white"/>
  <path d="M36.3728 42.4627V42.0391H36.7964V42.4627H36.3728ZM36.3728 44.3691V42.7048H36.7964V44.3691H36.3728Z" fill="white"/>
  <path d="M38.1279 44.3994C37.9766 44.3994 37.8556 44.3691 37.7648 44.3389C37.6438 44.3086 37.553 44.2178 37.4924 44.1573C37.4017 44.0665 37.3714 43.9758 37.3109 43.885C37.2806 43.7942 37.2504 43.6732 37.2504 43.5521C37.2504 43.4311 37.2806 43.3403 37.3109 43.2193C37.3411 43.1285 37.4017 43.0377 37.4924 42.9469C37.553 42.8561 37.674 42.7956 37.7648 42.7654C37.8858 42.7048 38.0069 42.7048 38.1279 42.7048C38.2792 42.7048 38.4003 42.7351 38.491 42.7654C38.6121 42.7956 38.7029 42.8864 38.7634 42.9469C38.8542 43.0377 38.8844 43.1285 38.9449 43.2193C38.9752 43.31 39.0055 43.4311 39.0055 43.5521C39.0055 43.6732 38.9752 43.7639 38.9449 43.885C38.9147 43.9758 38.8542 44.0665 38.7634 44.1573C38.6726 44.2481 38.5818 44.3086 38.491 44.3389C38.4003 44.3691 38.249 44.3994 38.1279 44.3994ZM37.674 43.5521C37.674 43.6429 37.7043 43.7337 37.7345 43.7942C37.7648 43.8547 37.8253 43.9152 37.8858 43.9758C37.9464 44.006 38.0371 44.0363 38.0977 44.0363C38.1884 44.0363 38.249 44.006 38.3095 43.9758C38.37 43.9455 38.4305 43.885 38.4608 43.7942C38.491 43.7337 38.5213 43.6429 38.5213 43.5521C38.5213 43.4613 38.491 43.3706 38.4608 43.31C38.4305 43.2495 38.37 43.189 38.3095 43.1285C38.249 43.0982 38.1582 43.068 38.0977 43.068C38.0069 43.068 37.9464 43.0982 37.8858 43.1285C37.8253 43.1587 37.7648 43.2193 37.7345 43.31C37.7043 43.3706 37.674 43.4613 37.674 43.5521Z" fill="white"/>
  <path d="M41.0026 44.3691H40.579V43.4311C40.579 43.31 40.5487 43.189 40.5185 43.1285C40.4579 43.0679 40.3974 43.0377 40.3369 43.0377C40.2764 43.0377 40.2159 43.0377 40.1553 43.0679C40.0948 43.0982 40.0343 43.1285 40.004 43.189C39.9435 43.2495 39.9133 43.31 39.9133 43.3705V44.3389H39.4896V42.6745H39.883V42.9772C39.9133 42.9166 39.9738 42.8561 40.0343 42.7956C40.0948 42.7351 40.1856 42.7048 40.2764 42.6745C40.3672 42.6443 40.458 42.6443 40.5487 42.6443C40.6395 42.6443 40.7303 42.6745 40.8211 42.7048C40.8816 42.7351 40.9421 42.7956 40.9724 42.8561C41.0026 42.9166 41.0329 42.9771 41.0329 43.0679C41.0329 43.1587 41.0632 43.2192 41.0632 43.31V44.3691H41.0026Z" fill="white"/>
  <path d="M41.4263 43.885C41.4263 43.764 41.4565 43.6732 41.5171 43.6127C41.5776 43.5219 41.6684 43.4614 41.7591 43.4311C41.8802 43.4008 42.0012 43.3706 42.1223 43.3706C42.1828 43.3706 42.2736 43.3706 42.3341 43.4008C42.3946 43.4008 42.4551 43.4311 42.5156 43.4614V43.3706C42.5156 43.2798 42.4854 43.189 42.4249 43.1285C42.3643 43.068 42.2736 43.0377 42.1525 43.0377C42.0617 43.0377 41.971 43.068 41.8802 43.0982C41.7894 43.1285 41.6986 43.189 41.6078 43.2495L41.4565 42.9772C41.5776 42.9167 41.6684 42.8562 41.7894 42.8259C41.9104 42.7956 42.0315 42.7654 42.1525 42.7654C42.3946 42.7654 42.5762 42.8259 42.6972 42.9469C42.8182 43.068 42.909 43.2193 42.909 43.4614V43.9758C42.909 44.0061 42.909 44.0666 42.9393 44.0666C42.9695 44.0666 42.9695 44.0968 43.0301 44.0968V44.46C42.9998 44.46 42.9695 44.46 42.9393 44.4902C42.909 44.4902 42.8788 44.4902 42.8485 44.4902C42.7577 44.4902 42.6972 44.46 42.6669 44.4297C42.6367 44.3994 42.6064 44.3389 42.5762 44.2784V44.1876C42.5156 44.2784 42.4249 44.3389 42.3038 44.3994C42.1828 44.46 42.092 44.4902 41.971 44.4902C41.8499 44.4902 41.7591 44.46 41.6684 44.4297C41.5776 44.3994 41.5171 44.3087 41.4565 44.2481C41.4565 44.0666 41.4263 43.9758 41.4263 43.885ZM42.4551 43.9758C42.4854 43.9455 42.4854 43.9153 42.5156 43.9153C42.5156 43.885 42.5459 43.8548 42.5459 43.8548V43.7034C42.4854 43.6732 42.4249 43.6732 42.3946 43.6429C42.3341 43.6429 42.2736 43.6127 42.213 43.6127C42.092 43.6127 42.0012 43.6429 41.9407 43.6732C41.8802 43.7337 41.8197 43.7942 41.8197 43.8548C41.8197 43.885 41.8197 43.9455 41.8499 43.9758C41.8802 44.0061 41.9104 44.0363 41.9407 44.0666C41.971 44.0968 42.0315 44.0968 42.092 44.0968C42.1525 44.0968 42.213 44.0968 42.2736 44.0666C42.3341 44.0363 42.4249 44.0061 42.4551 43.9758Z" fill="white"/>
  <path d="M43.5143 42.0391H43.9379V43.8547C43.9379 43.9455 43.9379 43.9757 43.9682 44.006C43.9984 44.0362 44.0287 44.0362 44.0589 44.0362C44.0892 44.0362 44.1195 44.0362 44.1497 44.0362C44.18 44.0362 44.2102 44.006 44.2405 44.006L44.301 44.3388C44.2405 44.3691 44.18 44.3994 44.0892 44.3994C43.9984 44.3994 43.9379 44.4296 43.8774 44.4296C43.7563 44.4296 43.6353 44.3994 43.5748 44.3086C43.5143 44.2481 43.4537 44.127 43.4537 44.006V42.0391H43.5143Z" fill="white"/>
  <path d="M45.4508 43.5521C45.4508 43.4008 45.4811 43.2495 45.5416 43.1284C45.6021 43.0074 45.6929 42.8864 45.8139 42.8258C45.935 42.735 46.056 42.7048 46.2073 42.7048C46.3284 42.7048 46.4494 42.735 46.5402 42.7956C46.631 42.8561 46.7217 42.9469 46.7823 43.0377V42.0391H47.2059V43.8849C47.2059 43.9152 47.2059 43.9757 47.2362 43.9757C47.2664 43.9757 47.2664 44.006 47.3269 44.006V44.3691C47.2664 44.3691 47.2059 44.3994 47.1454 44.3994C47.0546 44.3994 46.9941 44.3691 46.9638 44.3388C46.9336 44.3086 46.873 44.2481 46.873 44.1875V44.0968C46.8125 44.1875 46.7217 44.2783 46.631 44.3388C46.5402 44.3994 46.4191 44.4296 46.2981 44.4296C46.1771 44.4296 46.0863 44.3994 45.9652 44.3691C45.8744 44.3388 45.7837 44.2783 45.7232 44.1875C45.6626 44.0968 45.6021 44.006 45.5718 43.9152C45.4508 43.7639 45.4508 43.6731 45.4508 43.5521ZM46.752 43.7639V43.3705C46.7217 43.31 46.6915 43.2495 46.6612 43.2192C46.6007 43.1587 46.5704 43.1284 46.5099 43.0982C46.4494 43.0679 46.3889 43.0679 46.3284 43.0679C46.2678 43.0679 46.2073 43.0679 46.1468 43.0982C46.0863 43.1284 46.056 43.1587 45.9955 43.2192C45.9652 43.2797 45.935 43.31 45.9047 43.3705C45.8744 43.431 45.8745 43.4916 45.8745 43.5521C45.8745 43.6126 45.8744 43.6731 45.9047 43.7336C45.935 43.7942 45.9652 43.8547 45.9955 43.8849C46.0258 43.9152 46.0863 43.9757 46.1468 43.9757C46.2073 43.9757 46.2678 44.006 46.3284 44.006C46.3586 44.006 46.4191 44.006 46.4494 43.9757C46.4797 43.9757 46.5402 43.9455 46.5704 43.9152C46.6007 43.8849 46.631 43.8547 46.6612 43.8244C46.7217 43.8244 46.752 43.7942 46.752 43.7639Z" fill="white"/>
  <path d="M47.7506 43.7337V42.7048H48.1743V43.6429C48.1743 43.7639 48.2045 43.8547 48.2348 43.9152C48.2953 43.9758 48.3558 44.006 48.4466 44.006C48.5071 44.006 48.5676 44.006 48.5979 43.9758C48.6282 43.9455 48.6887 43.9152 48.7492 43.885C48.8097 43.8547 48.84 43.7942 48.8702 43.7337V42.7048H49.2939V43.885C49.2939 43.9152 49.2939 43.9758 49.3241 43.9758C49.3544 44.006 49.3544 44.006 49.4149 44.006V44.3691C49.3847 44.3691 49.3241 44.3691 49.2939 44.3691C49.2636 44.3691 49.2334 44.3691 49.2031 44.3691C49.1123 44.3691 49.0518 44.3389 49.0215 44.3086C48.961 44.2784 48.9308 44.2178 48.9308 44.1573V44.0363C48.8702 44.1573 48.7492 44.2481 48.6282 44.2784C48.5071 44.3389 48.3861 44.3691 48.2348 44.3691C48.0532 44.3691 47.9322 44.3086 47.8414 44.2178C47.8111 44.1271 47.7506 43.9758 47.7506 43.7337Z" fill="white"/>
  <path d="M50.7465 43.2192C50.7465 43.0679 50.7767 42.9469 50.807 42.8259C50.8675 42.7048 50.928 42.5838 51.0188 42.4627C51.1096 42.3417 51.2306 42.2509 51.3819 42.1904C51.5332 42.1299 51.6845 42.0996 51.8661 42.0996C52.0779 42.0996 52.2595 42.1601 52.4108 42.2509C52.5621 42.3417 52.6831 42.4627 52.7436 42.614L52.4108 42.8561C52.3805 42.7653 52.32 42.7048 52.2595 42.6443C52.199 42.5838 52.1384 42.5535 52.0477 42.5535C51.9871 42.5233 51.8964 42.5233 51.8358 42.5233C51.7148 42.5233 51.624 42.5535 51.5332 42.5838C51.4424 42.614 51.3819 42.6746 51.3214 42.7653C51.2609 42.8259 51.2306 42.9166 51.2004 43.0074C51.1701 43.0982 51.1701 43.189 51.1701 43.2798C51.1701 43.3705 51.2004 43.4916 51.2306 43.5824C51.2609 43.6731 51.3214 43.7639 51.3517 43.8244C51.4122 43.885 51.4727 43.9455 51.5635 44.006C51.6543 44.0363 51.745 44.0665 51.8358 44.0665C51.8964 44.0665 51.9871 44.0665 52.0477 44.0363C52.1082 44.006 52.199 43.9757 52.2595 43.9152C52.32 43.8547 52.3805 43.7942 52.4108 43.7034L52.7739 43.9152C52.7436 44.0363 52.6529 44.127 52.5621 44.2178C52.4713 44.3086 52.3503 44.3691 52.2292 44.3994C52.1082 44.4296 51.9871 44.4599 51.8661 44.4599C51.7148 44.4599 51.5635 44.4296 51.4122 44.3691C51.2609 44.3086 51.1701 44.2178 51.0793 44.0968C50.9885 43.9757 50.8978 43.8547 50.8372 43.7337C50.7767 43.4916 50.7465 43.3705 50.7465 43.2192Z" fill="white"/>
  <path d="M53.0764 43.885C53.0764 43.764 53.1067 43.6732 53.1672 43.6127C53.2277 43.5219 53.3185 43.4614 53.4093 43.4311C53.5303 43.4008 53.6514 43.3706 53.7724 43.3706C53.8329 43.3706 53.9237 43.3706 53.9842 43.4008C54.0447 43.4008 54.1053 43.4311 54.1658 43.4614V43.3706C54.1658 43.2798 54.1355 43.189 54.075 43.1285C54.0145 43.068 53.9237 43.0377 53.8027 43.0377C53.7119 43.0377 53.6211 43.068 53.5303 43.0982C53.4395 43.1285 53.3488 43.189 53.258 43.2495L53.1067 42.9772C53.2277 42.9167 53.3185 42.8562 53.4395 42.8259C53.5606 42.7956 53.6816 42.7654 53.8027 42.7654C54.0447 42.7654 54.2263 42.8259 54.3473 42.9469C54.4684 43.068 54.5592 43.2193 54.5592 43.4614V43.9758C54.5592 44.0061 54.5592 44.0666 54.5894 44.0666C54.6197 44.0666 54.6197 44.0968 54.6802 44.0968V44.46C54.6499 44.46 54.6197 44.46 54.5894 44.4902C54.5592 44.4902 54.5289 44.4902 54.4987 44.4902C54.4079 44.4902 54.3473 44.46 54.3171 44.4297C54.2868 44.3994 54.2566 44.3389 54.2263 44.2784V44.1876C54.1658 44.2784 54.075 44.3389 53.954 44.3994C53.8329 44.46 53.7421 44.4902 53.6211 44.4902C53.5001 44.4902 53.4093 44.46 53.3185 44.4297C53.2277 44.3994 53.1672 44.3087 53.1067 44.2481C53.1067 44.0666 53.0764 43.9758 53.0764 43.885ZM54.1053 43.9758C54.1355 43.9455 54.1355 43.9153 54.1658 43.9153C54.1658 43.885 54.196 43.8548 54.196 43.8548V43.7034C54.1355 43.6732 54.075 43.6732 54.0447 43.6429C53.9842 43.6429 53.9237 43.6127 53.8632 43.6127C53.7421 43.6127 53.6514 43.6429 53.5908 43.6732C53.5303 43.7337 53.4698 43.7942 53.4698 43.8548C53.4698 43.885 53.4698 43.9455 53.5001 43.9758C53.5303 44.0061 53.5606 44.0363 53.5908 44.0666C53.6211 44.0968 53.6816 44.0968 53.7421 44.0968C53.8027 44.0968 53.8632 44.0968 53.9237 44.0666C53.9842 44.0363 54.075 44.0061 54.1053 43.9758Z" fill="white"/>
  <path d="M56.738 44.3691H56.3143V43.4311C56.3143 43.31 56.2841 43.189 56.2538 43.1285C56.1933 43.0679 56.1328 43.0377 56.0723 43.0377C56.0117 43.0377 55.9512 43.0377 55.8907 43.0679C55.8302 43.0982 55.7697 43.1285 55.7394 43.189C55.6789 43.2495 55.6486 43.31 55.6486 43.3705V44.3389H55.225V42.6745H55.6184V42.9772C55.6486 42.9166 55.7091 42.8561 55.7697 42.7956C55.8302 42.7351 55.921 42.7048 56.0117 42.6745C56.1025 42.6443 56.1933 42.6443 56.2841 42.6443C56.3749 42.6443 56.4656 42.6745 56.5564 42.7048C56.6169 42.7351 56.6775 42.7956 56.7077 42.8561C56.738 42.9166 56.7682 42.9771 56.7682 43.0679C56.7682 43.1587 56.7985 43.2192 56.7985 43.31V44.3691H56.738Z" fill="white"/>
  <path d="M58.0694 44.3994C57.9181 44.3994 57.7971 44.3691 57.7063 44.3389C57.6155 44.3086 57.4945 44.2178 57.434 44.1573C57.3432 44.0665 57.3129 43.9758 57.2524 43.885C57.2222 43.7942 57.1919 43.6732 57.1919 43.5521C57.1919 43.4008 57.2222 43.2495 57.3129 43.1285C57.3735 43.0074 57.4945 42.8864 57.6155 42.8259C57.7366 42.7654 57.9181 42.7048 58.0997 42.7048C58.2813 42.7048 58.4326 42.7351 58.5536 42.8259C58.6746 42.9167 58.7957 43.0074 58.8562 43.1285L58.4023 43.2495C58.372 43.189 58.3115 43.1285 58.251 43.0982C58.1905 43.068 58.13 43.0377 58.0392 43.0377C57.9484 43.0377 57.8879 43.068 57.8274 43.0982C57.7668 43.1285 57.7063 43.189 57.6761 43.2798C57.6458 43.3706 57.6155 43.4311 57.6155 43.5521C57.6155 43.6429 57.6458 43.7337 57.6761 43.7942C57.7063 43.8547 57.7668 43.9152 57.8274 43.9758C57.8879 44.006 57.9787 44.0363 58.0392 44.0363C58.0997 44.0363 58.13 44.0363 58.1905 44.006C58.251 43.9758 58.2813 43.9758 58.3115 43.9455C58.3418 43.9152 58.372 43.885 58.4023 43.8547L58.8259 43.9758C58.7957 44.0665 58.7352 44.1271 58.6444 44.1876C58.5536 44.2481 58.4931 44.3086 58.372 44.3389C58.2813 44.3691 58.1905 44.3994 58.0694 44.3994Z" fill="white"/>
  <path d="M60.0061 44.3994C59.885 44.3994 59.764 44.3691 59.643 44.3389C59.5219 44.3086 59.4311 44.2178 59.3706 44.1573C59.2798 44.0665 59.2496 43.9758 59.1891 43.885C59.1588 43.7942 59.1285 43.6732 59.1285 43.5521C59.1285 43.4008 59.1588 43.2495 59.2496 43.1285C59.3101 43.0074 59.4311 42.8864 59.5522 42.8259C59.6732 42.7351 59.8548 42.7048 60.0363 42.7048C60.2179 42.7048 60.3692 42.7351 60.5205 42.8259C60.6416 42.9167 60.7626 43.0074 60.8231 43.1285C60.8836 43.2495 60.9139 43.4008 60.9139 43.5521C60.9139 43.5824 60.9139 43.6126 60.9139 43.6429C60.9139 43.6732 60.9139 43.7034 60.9139 43.7034H59.6127C59.6127 43.7942 59.643 43.8547 59.6732 43.9152C59.7035 43.9758 59.764 44.0363 59.8245 44.0665C59.885 44.0968 59.9456 44.1271 60.0363 44.1271C60.1271 44.1271 60.1876 44.0968 60.2784 44.0665C60.3692 44.0363 60.3995 43.9758 60.4297 43.9152L60.7929 44.006C60.7626 44.0968 60.7021 44.1573 60.6113 44.2481C60.5508 44.3086 60.46 44.3691 60.3389 44.3994C60.2482 44.3691 60.1271 44.3994 60.0061 44.3994ZM59.5522 43.4008H60.4297C60.4297 43.31 60.3995 43.2495 60.3692 43.189C60.339 43.1285 60.2784 43.068 60.2179 43.0377C60.1574 43.0074 60.0969 42.9772 60.0061 42.9772C59.9153 42.9772 59.8548 43.0074 59.7943 43.0377C59.7337 43.068 59.6732 43.1285 59.643 43.189C59.6127 43.2495 59.5824 43.31 59.5522 43.4008Z" fill="white"/>
  <path d="M62.3058 43.0679C62.1848 43.0679 62.0638 43.0982 61.9427 43.1285C61.8519 43.189 61.7612 43.2495 61.7309 43.3403V44.3691H61.3073V42.7048H61.7006V43.0377C61.7612 42.9166 61.8217 42.8258 61.9427 42.7653C62.0335 42.7048 62.1243 42.6745 62.2453 42.6443C62.2756 42.6443 62.2756 42.6443 62.3058 42.6443H62.3361V43.0679H62.3058Z" fill="white"/>
  <path d="M72.7458 43.0074C72.7458 43.4008 72.655 43.7336 72.4432 43.9757C72.2313 44.2178 71.959 44.3994 71.5959 44.5204C71.2328 44.6414 70.8394 44.702 70.4157 44.702H67.2384V38.1052H70.9907C71.2933 38.1052 71.5656 38.196 71.7774 38.3473C71.9893 38.4986 72.1708 38.7104 72.2919 38.9828C72.4129 39.2551 72.4734 39.5275 72.4734 39.7998C72.4734 40.1024 72.3826 40.405 72.2313 40.6773C72.08 40.9497 71.838 41.1615 71.5354 41.3128C71.8985 41.4339 72.2011 41.6154 72.4129 41.8878C72.6247 42.1601 72.7458 42.5535 72.7458 43.0074ZM69.0238 39.6485V40.6471H70.2342C70.325 40.6471 70.3855 40.6471 70.4762 40.6168C70.5368 40.5866 70.5973 40.526 70.6578 40.4655C70.7183 40.405 70.7183 40.284 70.7183 40.1629C70.7183 40.0419 70.6881 39.9511 70.6578 39.8603C70.6276 39.7998 70.567 39.7393 70.5065 39.709C70.446 39.6788 70.3855 39.6485 70.2947 39.6485H69.0238ZM70.9302 42.614C70.9302 42.493 70.8999 42.4022 70.8696 42.3114C70.8394 42.2206 70.7789 42.1601 70.7183 42.0996C70.6578 42.0391 70.567 42.0391 70.4762 42.0391H68.9935V43.1587H70.3855C70.4763 43.1587 70.567 43.1284 70.6578 43.0982C70.7486 43.0679 70.8091 43.0074 70.8394 42.9166C70.8696 42.8258 70.9302 42.735 70.9302 42.614Z" fill="white"/>
  <path d="M79.0701 43.0981V44.6716H74.4403V38.1051H78.9793V39.6787H76.2257V40.6167H78.586V42.0692H76.2257V43.0981H79.0701ZM75.106 37.2578L76.1349 36.1987H77.3755L78.4044 37.2578L77.5269 37.6512L76.7401 37.0763L75.9533 37.6512L75.106 37.2578ZM75.9836 46.6385V45.2465H77.5269V46.6385H75.9836Z" fill="white"/>
  <path d="M82.5803 41.4339V44.6717H80.7949V38.1052H82.1869L84.7893 41.4641V38.1052H86.5746V44.702H85.1524L82.5803 41.4339Z" fill="white"/>
  <path d="M94.3212 38.1052V44.702H92.5359V42.1298H90.3571V44.702H88.5718V38.1052H90.3571V40.526H92.5359V38.1052H94.3212Z" fill="white"/>
  <path d="M100.282 38.1052L101.553 42.614L102.794 38.1052H104.67L102.431 44.702H100.646L98.3761 38.1052H100.282Z" fill="white"/>
  <path d="M106.062 44.702V38.1052H107.848V44.702H106.062Z" fill="white"/>
  <path d="M114.505 43.0981V44.6716H109.875V38.1051H114.414V39.6787H111.66V40.6167H114.021V42.0692H111.66V43.0981H114.505ZM110.541 37.2578L111.57 36.1987H112.81L113.839 37.2578L112.962 37.6512L112.175 37.0763L111.388 37.6512L110.541 37.2578ZM111.418 46.6385V45.2465H112.962V46.6385H111.418Z" fill="white"/>
  <path d="M118.015 41.4339V44.6717H116.23V38.1052H117.622L120.224 41.4641V38.1052H122.009V44.702H120.587L118.015 41.4339Z" fill="white"/>
  <path d="M127.002 44.702V38.1052H128.788V40.6168L130.755 38.1052H132.752L130.391 41.0707L132.903 44.702H130.845L129.242 42.2811L128.757 42.7956V44.702H127.002Z" fill="white"/>
  <path d="M68.4185 6.33203H67.5106H64.4846V10.2659H67.5106V34.1714H71.4445V6.33203H68.4185Z" fill="white"/>
  <path fill-rule="evenodd" clip-rule="evenodd" d="M129.847 20.2517C129.847 18.89 129.574 17.5888 129.09 16.3784L132.782 15.8943C133.236 17.256 133.478 18.7387 133.478 20.2517C133.478 27.9378 127.244 34.1714 119.558 34.1714C114.674 34.1714 110.377 31.6544 107.892 27.8471H112.637C114.468 29.518 116.899 30.5402 119.558 30.5402C125.217 30.5402 129.847 25.9104 129.847 20.2517ZM109.567 22.7028C109.373 21.9166 109.27 21.0956 109.27 20.2517C109.27 14.5931 113.9 9.96326 119.558 9.96326C119.77 9.96326 119.952 9.96326 120.163 9.99352V6.36229C120.058 6.36229 119.959 6.35473 119.861 6.34716C119.763 6.3396 119.664 6.33203 119.558 6.33203C111.872 6.33203 105.639 12.5656 105.639 20.2517C105.639 21.088 105.712 21.9071 105.854 22.7028H109.567Z" fill="white"/>
  <path fill-rule="evenodd" clip-rule="evenodd" d="M98.376 20.2517C98.376 18.89 98.1037 17.5888 97.6195 16.3784L101.311 15.8943C101.765 17.256 102.007 18.7387 102.007 20.2517C102.007 21.088 101.933 21.9071 101.792 22.7028H98.0791C98.2731 21.9166 98.376 21.0956 98.376 20.2517ZM95.0093 27.8471C93.1783 29.518 90.7465 30.5402 88.0876 30.5402C82.4289 30.5402 77.7991 25.9104 77.7991 20.2517C77.7991 14.5931 82.4289 9.96326 88.0876 9.96326C88.2994 9.96326 88.4809 9.96326 88.6928 9.99352V6.36229C88.5868 6.36229 88.4885 6.35473 88.3902 6.34716C88.2918 6.3396 88.1935 6.33203 88.0876 6.33203C80.4015 6.33203 74.1678 12.5656 74.1678 20.2517C74.1678 27.9378 80.4015 34.1714 88.0876 34.1714C92.9716 34.1714 97.2692 31.6544 99.7535 27.8471H95.0093Z" fill="white"/>
  <path d="M92.2509 23.4713H92.8464L93.3451 26.9089H92.6576L92.5511 26.0519H91.4423L90.9776 26.9089H90.29L92.2509 23.4713ZM92.5366 25.5823L92.3865 24.2315L91.6505 25.5823H92.5366Z" fill="#E1011B"/>
  <path d="M94.1853 24.3719H94.7711L94.6695 24.8415C94.7534 24.7318 94.8502 24.6398 94.96 24.5656C95.0729 24.4881 95.194 24.43 95.3231 24.3913C95.4554 24.3493 95.591 24.3283 95.7298 24.3283C95.8782 24.3283 95.9928 24.3541 96.0735 24.4058C96.1542 24.4574 96.2107 24.5284 96.243 24.6188C96.2785 24.706 96.2962 24.8044 96.2962 24.9142C96.2962 24.9819 96.2914 25.0497 96.2817 25.1175C96.272 25.1853 96.2607 25.2547 96.2478 25.3257L95.9138 26.9089H95.265L95.5652 25.4855C95.5781 25.437 95.5861 25.3919 95.5894 25.3499C95.5958 25.3079 95.599 25.2676 95.599 25.2289C95.599 25.1159 95.5732 25.0336 95.5216 24.9819C95.4732 24.9271 95.407 24.8996 95.3231 24.8996C95.2456 24.8996 95.1617 24.9222 95.0713 24.9674C94.9809 25.0126 94.8954 25.0755 94.8147 25.1562C94.734 25.2337 94.6662 25.3241 94.6114 25.4274L94.2966 26.9089H93.6479L94.1853 24.3719Z" fill="#E1011B"/>
  <path d="M97.0033 24.3719H97.5891L97.4874 24.8415C97.5714 24.7318 97.6682 24.6398 97.7779 24.5656C97.8909 24.4881 98.0119 24.43 98.1411 24.3913C98.2734 24.3493 98.409 24.3283 98.5478 24.3283C98.6962 24.3283 98.8108 24.3541 98.8915 24.4058C98.9722 24.4574 99.0287 24.5284 99.061 24.6188C99.0965 24.706 99.1142 24.8044 99.1142 24.9142C99.1142 24.9819 99.1094 25.0497 99.0997 25.1175C99.09 25.1853 99.0787 25.2547 99.0658 25.3257L98.7317 26.9089H98.083L98.3831 25.4855C98.3961 25.437 98.4041 25.3919 98.4073 25.3499C98.4138 25.3079 98.417 25.2676 98.417 25.2289C98.417 25.1159 98.3912 25.0336 98.3396 24.9819C98.2911 24.9271 98.225 24.8996 98.1411 24.8996C98.0636 24.8996 97.9797 24.9222 97.8893 24.9674C97.7989 25.0126 97.7134 25.0755 97.6327 25.1562C97.552 25.2337 97.4842 25.3241 97.4293 25.4274L97.1146 26.9089H96.4659L97.0033 24.3719Z" fill="#E1011B"/>
  <path d="M99.8213 24.3719H100.47L99.9326 26.9089H99.2838L99.8213 24.3719ZM100.034 23.3745H100.683L100.548 24.0184H99.8987L100.034 23.3745Z" fill="#E1011B"/>
  <path d="M100.77 24.3719H101.443L101.598 26.3812C101.714 26.2004 101.819 26.0277 101.913 25.8631C102.009 25.6985 102.096 25.5371 102.174 25.379C102.251 25.2176 102.322 25.0546 102.387 24.8899C102.452 24.7221 102.51 24.5494 102.561 24.3719H103.157C103.041 24.7915 102.865 25.2143 102.629 25.6404C102.393 26.0632 102.113 26.4861 101.787 26.9089H101.109L100.77 24.3719Z" fill="#E1011B"/>
  <path d="M104.138 26.9573C103.925 26.9573 103.739 26.9121 103.581 26.8218C103.426 26.7282 103.307 26.6007 103.223 26.4393C103.142 26.2747 103.102 26.0891 103.102 25.8825C103.102 25.6727 103.142 25.4742 103.223 25.287C103.303 25.0997 103.416 24.9351 103.562 24.7931C103.707 24.6479 103.876 24.5349 104.07 24.4542C104.264 24.3703 104.474 24.3283 104.699 24.3283C104.883 24.3283 105.043 24.3558 105.179 24.4106C105.314 24.4655 105.419 24.5462 105.494 24.6527C105.568 24.756 105.605 24.8835 105.605 25.0352C105.605 25.3031 105.482 25.5064 105.237 25.6452C104.995 25.784 104.63 25.8534 104.143 25.8534C104.046 25.8534 103.941 25.8518 103.828 25.8486C103.715 25.8421 103.592 25.8324 103.46 25.8195L103.542 25.4128C103.659 25.4225 103.765 25.4306 103.862 25.437C103.959 25.4403 104.054 25.4419 104.148 25.4419C104.357 25.4419 104.522 25.4274 104.641 25.3983C104.764 25.3693 104.853 25.3273 104.908 25.2724C104.963 25.2176 104.99 25.153 104.99 25.0788C104.99 25.0142 104.974 24.9626 104.942 24.9238C104.909 24.8819 104.864 24.8512 104.806 24.8318C104.751 24.8093 104.685 24.798 104.607 24.798C104.482 24.798 104.365 24.8286 104.259 24.8899C104.156 24.948 104.065 25.0287 103.988 25.132C103.91 25.2353 103.851 25.3531 103.809 25.4855C103.767 25.6178 103.746 25.7582 103.746 25.9067C103.746 26.0164 103.763 26.1165 103.799 26.2069C103.838 26.294 103.894 26.3618 103.968 26.4102C104.043 26.4586 104.138 26.4828 104.254 26.4828C104.383 26.4828 104.504 26.4522 104.617 26.3909C104.733 26.3295 104.825 26.244 104.893 26.1342L105.406 26.294C105.322 26.4231 105.213 26.5377 105.077 26.6378C104.942 26.7378 104.793 26.8169 104.632 26.875C104.47 26.9299 104.306 26.9573 104.138 26.9573Z" fill="#E1011B"/>
  <path d="M106.209 24.3719H106.805L106.688 24.9142C106.811 24.7399 106.948 24.6027 107.1 24.5026C107.255 24.3993 107.407 24.3477 107.555 24.3477C107.587 24.3477 107.611 24.3493 107.628 24.3525C107.647 24.3525 107.661 24.3541 107.671 24.3574L107.55 24.9335C107.366 24.9335 107.192 24.9723 107.027 25.0497C106.866 25.124 106.738 25.2321 106.645 25.3741L106.32 26.9089H105.672L106.209 24.3719Z" fill="#E1011B"/>
  <path d="M108.421 26.9573C108.215 26.9573 108.019 26.9234 107.835 26.8556C107.655 26.7879 107.509 26.691 107.4 26.5652L107.724 26.1585C107.847 26.265 107.973 26.3473 108.102 26.4054C108.231 26.4602 108.362 26.4877 108.494 26.4877C108.584 26.4877 108.662 26.4748 108.726 26.449C108.791 26.4199 108.841 26.3828 108.876 26.3376C108.912 26.2892 108.93 26.2343 108.93 26.173C108.93 26.0923 108.894 26.0326 108.823 25.9938C108.752 25.9551 108.641 25.9131 108.489 25.868C108.321 25.8131 108.182 25.7614 108.073 25.713C107.966 25.6614 107.887 25.6017 107.835 25.5339C107.784 25.4629 107.758 25.3741 107.758 25.2676C107.758 25.0868 107.808 24.9254 107.908 24.7834C108.011 24.6414 108.149 24.53 108.32 24.4494C108.494 24.3654 108.688 24.3235 108.901 24.3235C109.085 24.3235 109.249 24.3525 109.394 24.4106C109.54 24.4655 109.669 24.5526 109.782 24.6721L109.438 25.0642C109.335 24.9674 109.235 24.898 109.138 24.8561C109.044 24.8109 108.941 24.7883 108.828 24.7883C108.744 24.7883 108.668 24.8012 108.6 24.827C108.536 24.8496 108.484 24.8851 108.446 24.9335C108.407 24.9819 108.387 25.04 108.387 25.1078C108.387 25.1821 108.416 25.2369 108.475 25.2724C108.536 25.3047 108.641 25.3434 108.789 25.3886C108.97 25.4403 109.118 25.4951 109.235 25.5532C109.351 25.6081 109.438 25.6743 109.496 25.7518C109.554 25.8292 109.583 25.9277 109.583 26.0471C109.583 26.2246 109.535 26.3812 109.438 26.5167C109.341 26.6523 109.206 26.7604 109.031 26.8411C108.857 26.9186 108.654 26.9573 108.421 26.9573Z" fill="#E1011B"/>
  <path d="M110.811 26.9573C110.624 26.9573 110.462 26.9121 110.327 26.8218C110.194 26.7282 110.091 26.6039 110.017 26.449C109.946 26.2908 109.91 26.1133 109.91 25.9164C109.91 25.7066 109.947 25.5064 110.022 25.316C110.096 25.1256 110.197 24.9561 110.327 24.8076C110.459 24.6592 110.607 24.543 110.772 24.459C110.94 24.3719 111.116 24.3283 111.3 24.3283C111.474 24.3283 111.622 24.3751 111.745 24.4687C111.868 24.5591 111.952 24.6753 111.997 24.8173L112.094 24.3816H112.743L112.365 26.1633C112.362 26.1794 112.358 26.1956 112.355 26.2117C112.352 26.2246 112.35 26.2375 112.35 26.2504C112.35 26.3182 112.389 26.3537 112.467 26.357L112.35 26.9089C112.292 26.9186 112.241 26.9267 112.195 26.9331C112.153 26.9396 112.116 26.9428 112.084 26.9428C111.968 26.9428 111.877 26.9186 111.813 26.8702C111.748 26.8218 111.716 26.7491 111.716 26.6523C111.716 26.6394 111.718 26.6249 111.721 26.6087C111.724 26.5894 111.727 26.5684 111.731 26.5458C111.734 26.52 111.739 26.4941 111.745 26.4683C111.622 26.6265 111.477 26.7475 111.309 26.8314C111.142 26.9154 110.975 26.9573 110.811 26.9573ZM111.101 26.4054C111.156 26.4054 111.214 26.3957 111.276 26.3763C111.337 26.3537 111.397 26.3247 111.455 26.2892C111.516 26.2504 111.572 26.2053 111.624 26.1536C111.676 26.0987 111.719 26.0406 111.755 25.9793L111.881 25.3741C111.871 25.2805 111.842 25.1966 111.794 25.1223C111.745 25.0481 111.685 24.99 111.614 24.948C111.543 24.9029 111.468 24.8803 111.387 24.8803C111.284 24.8803 111.184 24.9077 111.087 24.9626C110.993 25.0142 110.909 25.0852 110.835 25.1756C110.761 25.2628 110.701 25.3628 110.656 25.4758C110.614 25.5855 110.593 25.6985 110.593 25.8147C110.593 25.9244 110.614 26.0245 110.656 26.1149C110.698 26.2053 110.756 26.2763 110.83 26.3279C110.908 26.3796 110.998 26.4054 111.101 26.4054Z" fill="#E1011B"/>
  <path d="M113.377 24.3719H114.026L113.488 26.9089H112.839L113.377 24.3719ZM113.59 23.3745H114.239L114.103 24.0184H113.454L113.59 23.3745Z" fill="#E1011B"/>
  <path d="M114.601 24.3719H115.197L115.081 24.9142C115.203 24.7399 115.341 24.6027 115.492 24.5026C115.647 24.3993 115.799 24.3477 115.947 24.3477C115.98 24.3477 116.004 24.3493 116.02 24.3525C116.039 24.3525 116.054 24.3541 116.064 24.3574L115.943 24.9335C115.759 24.9335 115.584 24.9723 115.42 25.0497C115.258 25.124 115.131 25.2321 115.037 25.3741L114.713 26.9089H114.064L114.601 24.3719Z" fill="#E1011B"/>
  <path d="M116.998 26.9573C116.785 26.9573 116.6 26.9121 116.442 26.8218C116.287 26.7282 116.167 26.6007 116.083 26.4393C116.003 26.2747 115.962 26.0891 115.962 25.8825C115.962 25.6727 116.003 25.4742 116.083 25.287C116.164 25.0997 116.277 24.9351 116.422 24.7931C116.568 24.6479 116.737 24.5349 116.931 24.4542C117.124 24.3703 117.334 24.3283 117.56 24.3283C117.744 24.3283 117.904 24.3558 118.039 24.4106C118.175 24.4655 118.28 24.5462 118.354 24.6527C118.428 24.756 118.465 24.8835 118.465 25.0352C118.465 25.3031 118.343 25.5064 118.097 25.6452C117.855 25.784 117.491 25.8534 117.003 25.8534C116.906 25.8534 116.802 25.8518 116.689 25.8486C116.576 25.8421 116.453 25.8324 116.321 25.8195L116.403 25.4128C116.519 25.4225 116.626 25.4306 116.722 25.437C116.819 25.4403 116.915 25.4419 117.008 25.4419C117.218 25.4419 117.383 25.4274 117.502 25.3983C117.625 25.3693 117.713 25.3273 117.768 25.2724C117.823 25.2176 117.851 25.153 117.851 25.0788C117.851 25.0142 117.834 24.9626 117.802 24.9238C117.77 24.8819 117.725 24.8512 117.667 24.8318C117.612 24.8093 117.546 24.798 117.468 24.798C117.342 24.798 117.226 24.8286 117.119 24.8899C117.016 24.948 116.926 25.0287 116.848 25.132C116.771 25.2353 116.711 25.3531 116.669 25.4855C116.627 25.6178 116.606 25.7582 116.606 25.9067C116.606 26.0164 116.624 26.1165 116.66 26.2069C116.698 26.294 116.755 26.3618 116.829 26.4102C116.903 26.4586 116.998 26.4828 117.115 26.4828C117.244 26.4828 117.365 26.4522 117.478 26.3909C117.594 26.3295 117.686 26.244 117.754 26.1342L118.267 26.294C118.183 26.4231 118.073 26.5377 117.938 26.6378C117.802 26.7378 117.654 26.8169 117.492 26.875C117.331 26.9299 117.166 26.9573 116.998 26.9573Z" fill="#E1011B"/>
</svg>